<svg width="92" height="82" xmlns="http://www.w3.org/2000/svg" xmlns:xlink="http://www.w3.org/1999/xlink" xml:space="preserve" overflow="hidden"><defs><clipPath id="clip0"><rect x="818" y="86" width="92" height="82"/></clipPath><clipPath id="clip1"><rect x="818" y="86" width="92" height="82"/></clipPath><clipPath id="clip2"><rect x="819" y="87" width="91" height="81"/></clipPath><clipPath id="clip3"><rect x="819" y="87" width="91" height="81"/></clipPath><radialGradient cx="-523.91" cy="424.69" r="1" gradientUnits="userSpaceOnUse" spreadMethod="pad" id="fill4" gradientTransform="matrix(143.662 0 0 -143.662 75531.9 61102.5)"><stop offset="0" stop-color="#7EBE42" stop-opacity="1"/><stop offset="0.29" stop-color="#7EBE42" stop-opacity="1"/><stop offset="0.44" stop-color="#63AE45" stop-opacity="1"/><stop offset="0.69" stop-color="#009848" stop-opacity="1"/><stop offset="0.7" stop-color="#0763AF" stop-opacity="1"/><stop offset="0.9" stop-color="#1798D5" stop-opacity="1"/><stop offset="1" stop-color="#26AAE1" stop-opacity="1"/></radialGradient></defs><g clip-path="url(#clip0)" transform="translate(-818 -86)"><g clip-path="url(#clip1)"><g clip-path="url(#clip2)"><g clip-path="url(#clip3)"><g><path d="M261.63 32.9184C248.997 32.8112 238.669 42.965 238.562 55.5974 238.455 68.2302 248.608 78.5583 261.241 78.6656 273.874 78.7728 284.202 68.619 284.309 55.9862 284.31 55.9218 284.31 55.8573 284.31 55.7928 284.275 43.2495 274.172 33.06 261.63 32.9184ZM261.63 68.2668C254.777 68.3024 249.192 62.7757 249.156 55.9224 249.121 49.0692 254.647 43.4844 261.501 43.4487 268.354 43.4131 273.938 48.9396 273.974 55.7928 273.975 62.6318 268.468 68.1958 261.63 68.2668Z" fill="#FFFFFF" fill-rule="nonzero" fill-opacity="1" transform="matrix(1.05451 0 0 1 503.423 87)"/><path d="M177.844 32.4C172.966 32.4078 168.133 33.3195 163.588 35.0892 160.149 33.14 156.228 32.2073 152.28 32.4 146.11 32.3681 139.978 33.3645 134.136 35.3484L133.002 35.7372 133.002 77.76 144.439 77.76 144.439 43.3188C146.52 42.5872 148.714 42.236 150.919 42.282 156.589 42.282 158.242 44.0964 158.242 49.9932L158.242 77.76 169.808 77.76 169.808 49.248C169.879 47.3008 169.705 45.3522 169.29 43.4484 171.262 42.7197 173.344 42.3361 175.446 42.3144 180.857 42.3144 183.287 44.7444 183.287 50.0256L183.287 77.76 194.724 77.76 194.724 49.1184C195.216 44.8698 193.965 40.6034 191.257 37.2924 187.657 33.8736 182.8 32.1019 177.844 32.4Z" fill="#FFFFFF" fill-rule="nonzero" fill-opacity="1" transform="matrix(1.05451 0 0 1 503.423 87)"/><path d="M223.56 68.688C215.946 68.688 211.572 63.9576 211.572 55.728 211.572 47.4984 215.978 42.4116 223.69 42.4116 225.115 42.3918 226.535 42.5885 227.902 42.9948 229.508 43.487 231.012 44.2665 232.34 45.2952L237.168 36.9684C235.179 35.3652 232.87 34.2057 230.396 33.5664 228.047 32.9239 225.636 32.5328 223.204 32.4 209.434 32.4 200.2 41.9256 200.2 56.1168 200.2 69.7572 208.948 78.5376 222.523 78.5376 228.053 78.6607 233.444 76.7987 237.719 73.2888L232.016 66.096C229.557 67.8621 226.586 68.7726 223.56 68.688Z" fill="#FFFFFF" fill-rule="nonzero" fill-opacity="1" transform="matrix(1.05451 0 0 1 503.423 87)"/><path d="M74.52 32.7888C58.32 32.7888 50.6088 39.9816 50.6088 55.2744L50.6088 77.76 62.3052 77.76 62.3052 55.08C62.3052 47.3688 66.6792 42.606 73.4832 42.606 75.6731 42.6313 77.8507 42.9362 79.9632 43.5132L82.6524 33.372C79.9564 33.0072 77.2403 32.8125 74.52 32.7888Z" fill="#FFFFFF" fill-rule="nonzero" fill-opacity="1" transform="matrix(1.05451 0 0 1 503.423 87)"/><path d="M126.36 54.0108 126.36 77.76 110.776 77.76C99.9864 77.76 95.2236 76.9824 89.586 73.2564 84.6936 70.0164 81.972 63.5364 81.972 55.404 81.972 44.0964 89.4564 32.724 105.883 32.724 119.264 32.6592 126.36 40.1112 126.36 54.0108ZM114.923 55.2744C114.923 46.656 111.683 42.3144 104.879 42.3144 98.0748 42.3144 93.96 47.4336 93.96 55.08 93.96 64.152 98.172 68.04 107.957 68.04L115.02 68.04Z" fill="#FFFFFF" fill-rule="nonzero" fill-opacity="1" transform="matrix(1.05451 0 0 1 503.423 87)"/><path d="M44.3556 54.0108 44.3556 77.76 28.8036 77.76C18.0144 77.76 13.2516 76.9824 7.5816 73.2564 2.6892 69.9192 0 63.6336 0 55.404 0 44.0964 7.452 32.724 23.9112 32.724 37.26 32.6592 44.3556 40.1112 44.3556 54.0108ZM32.4 55.2744C32.4 46.5264 29.322 42.3144 22.4856 42.3144 15.6492 42.3144 11.4372 47.4336 11.4372 55.08 11.4372 64.152 15.8112 68.04 25.596 68.04L32.4 68.04Z" fill="#FFFFFF" fill-rule="nonzero" fill-opacity="1" transform="matrix(1.05451 0 0 1 503.423 87)"/><path d="M307.8 1.62 306.18 1.62 306.18 79.38 383.94 79.38 383.94 1.62 307.8 1.62Z" stroke="#FFFFFF" stroke-width="3.24" stroke-linecap="butt" stroke-linejoin="miter" stroke-miterlimit="4" stroke-opacity="1" fill="url(#fill4)" fill-rule="nonzero" transform="matrix(1.05451 0 0 1 503.423 87)"/><path d="M348.883 34.506C349.719 34.8562 350.27 35.6718 350.276 36.5796 350.276 37.3248 349.337 37.5516 348.43 37.1304 347.568 36.796 347.02 35.9465 347.069 35.0244 347.231 34.3116 348.008 34.0848 348.883 34.506Z" fill="#FFFFFF" fill-rule="nonzero" fill-opacity="1" transform="matrix(1.05451 0 0 1 503.423 87)"/><path d="M351.54 20.1852C352.253 20.5416 352.771 21.1896 352.706 21.6432 352.642 22.0968 351.994 22.1616 351.248 21.8052 350.503 21.4488 350.017 20.7684 350.082 20.2824 350.147 19.7964 350.795 19.7964 351.54 20.1852Z" fill="#FFFFFF" fill-rule="nonzero" fill-opacity="1" transform="matrix(1.05451 0 0 1 503.423 87)"/><path d="M351.767 18.7272C352.35 19.0512 352.804 19.602 352.739 19.9584 352.674 20.3148 352.156 20.3796 351.54 19.9584 350.924 19.5372 350.503 19.0836 350.568 18.7272 350.633 18.3708 351.151 18.4356 351.767 18.7272Z" fill="#FFFFFF" fill-rule="nonzero" fill-opacity="1" transform="matrix(1.05451 0 0 1 503.423 87)"/><path d="M351.994 17.334C352.577 17.6256 352.966 18.1116 352.933 18.4356 352.901 18.7596 352.382 18.792 351.799 18.4356 351.216 18.0792 350.86 17.6256 350.892 17.3016 350.924 16.9776 351.443 17.0424 351.994 17.334Z" fill="#FFFFFF" fill-rule="nonzero" fill-opacity="1" transform="matrix(1.05451 0 0 1 503.423 87)"/><path d="M352.22 15.9408C352.739 16.2324 353.095 16.6536 353.063 16.9452 353.03 17.2368 352.577 17.2692 352.026 16.9452 351.475 16.6212 351.151 16.2324 351.184 15.9408 351.216 15.6492 351.702 15.6816 352.22 15.9408Z" fill="#FFFFFF" fill-rule="nonzero" fill-opacity="1" transform="matrix(1.05451 0 0 1 503.423 87)"/><path d="M352.415 14.6772C352.901 14.9364 353.257 15.3252 353.225 15.5844 353.192 15.8436 352.771 15.876 352.285 15.5844 351.799 15.2928 351.443 14.904 351.475 14.6448 351.508 14.3856 351.961 14.418 352.415 14.6772Z" fill="#FFFFFF" fill-rule="nonzero" fill-opacity="1" transform="matrix(1.05451 0 0 1 503.423 87)"/><path d="M352.609 13.5108C353.063 13.77 353.354 14.1264 353.354 14.3532 353.354 14.58 352.933 14.58 352.48 14.3532 352.026 14.1264 351.702 13.7376 351.734 13.4784 351.767 13.2192 352.156 13.284 352.609 13.5108Z" fill="#FFFFFF" fill-rule="nonzero" fill-opacity="1" transform="matrix(1.05451 0 0 1 503.423 87)"/><path d="M352.804 12.4092C353.192 12.636 353.484 12.9276 353.452 13.1868 353.419 13.446 353.095 13.3812 352.674 13.1868 352.253 12.9924 351.961 12.636 351.994 12.4092 352.026 12.1824 352.382 12.1824 352.804 12.4092Z" fill="#FFFFFF" fill-rule="nonzero" fill-opacity="1" transform="matrix(1.05451 0 0 1 503.423 87)"/><path d="M352.966 11.2752C353.322 11.4696 353.581 11.7288 353.549 11.9232 353.516 12.1176 353.225 11.9232 352.868 11.9232 352.512 11.9232 352.253 11.4696 352.285 11.2752 352.318 11.0808 352.609 11.0808 352.966 11.2752Z" fill="#FFFFFF" fill-rule="nonzero" fill-opacity="1" transform="matrix(1.05451 0 0 1 503.423 87)"/><path d="M353.16 10.206C353.484 10.4004 353.711 10.6272 353.711 10.8216 353.711 11.016 353.419 10.8216 353.063 10.8216 352.706 10.8216 352.512 10.4004 352.544 10.2384 352.577 10.0764 352.836 10.044 353.16 10.206Z" fill="#FFFFFF" fill-rule="nonzero" fill-opacity="1" transform="matrix(1.05451 0 0 1 503.423 87)"/><path d="M353.16 9.1692C353.452 9.1692 353.646 9.5256 353.646 9.6876 353.646 9.8496 353.387 9.6876 353.095 9.6876 352.804 9.6876 352.609 9.3312 352.642 9.1692 352.674 9.0072 353.16 9.0072 353.16 9.1692Z" fill="#FFFFFF" fill-rule="nonzero" fill-opacity="1" transform="matrix(1.05451 0 0 1 503.423 87)"/><path d="M353.452 8.1972C353.711 8.1972 353.873 8.4888 353.873 8.6184 353.873 8.748 353.646 8.6184 353.387 8.6184 353.128 8.6184 352.966 8.2944 352.998 8.1648 353.03 8.0352 353.16 8.0352 353.452 8.1972Z" fill="#FFFFFF" fill-rule="nonzero" fill-opacity="1" transform="matrix(1.05451 0 0 1 503.423 87)"/><path d="M347.976 39.528C347.25 39.226 346.797 38.498 346.842 37.7136 346.842 37.098 347.652 36.9036 348.397 37.26 349.087 37.5675 349.531 38.2534 349.531 39.0096 349.402 39.6576 348.721 39.8844 347.976 39.528Z" fill="#FFFFFF" fill-rule="nonzero" fill-opacity="1" transform="matrix(1.05451 0 0 1 503.423 87)"/><path d="M347.393 42.606C346.686 42.2911 346.256 41.5624 346.324 40.7916 346.324 40.1436 347.101 39.9168 347.846 40.2732 348.54 40.5839 348.967 41.2957 348.916 42.0552 348.786 42.7032 348.138 42.93 347.393 42.606Z" fill="#FFFFFF" fill-rule="nonzero" fill-opacity="1" transform="matrix(1.05451 0 0 1 503.423 87)"/><path d="M346.68 45.7812C345.98 45.4637 345.562 44.7321 345.643 43.9668 345.643 43.3188 346.421 43.092 347.134 43.416 347.824 43.7099 348.245 44.4185 348.17 45.1656 348.138 45.846 347.49 46.1052 346.68 45.7812Z" fill="#FFFFFF" fill-rule="nonzero" fill-opacity="1" transform="matrix(1.05451 0 0 1 503.423 87)"/><path d="M346.097 49.2804C345.394 48.969 344.982 48.2274 345.092 47.466 345.18 46.9544 345.666 46.611 346.178 46.6988 346.311 46.7218 346.437 46.7736 346.55 46.8504 347.241 47.1585 347.649 47.882 347.555 48.6324 347.425 49.3128 346.68 49.572 346.097 49.2804Z" fill="#FFFFFF" fill-rule="nonzero" fill-opacity="1" transform="matrix(1.05451 0 0 1 503.423 87)"/><path d="M345.384 52.7472C344.775 52.4682 344.418 51.8235 344.509 51.1596 344.606 50.6684 345.086 50.3499 345.578 50.4484 345.669 50.4669 345.757 50.499 345.838 50.544 346.434 50.8333 346.774 51.4755 346.68 52.1316 346.599 52.6082 346.149 52.9296 345.672 52.8499 345.572 52.8331 345.475 52.7981 345.384 52.7472Z" fill="#FFFFFF" fill-rule="nonzero" fill-opacity="1" transform="matrix(1.05451 0 0 1 503.423 87)"/><path d="M344.509 56.9916C343.916 56.7 343.589 56.0543 343.699 55.404 343.77 54.9264 344.218 54.5976 344.694 54.6698 344.788 54.6838 344.879 54.7129 344.963 54.756 345.559 55.0453 345.899 55.6875 345.805 56.3436 345.714 56.8364 345.241 57.1623 344.749 57.0713 344.665 57.0561 344.584 57.0292 344.509 56.9916Z" fill="#FFFFFF" fill-rule="nonzero" fill-opacity="1" transform="matrix(1.05451 0 0 1 503.423 87)"/><path d="M343.44 61.56C342.886 61.2895 342.588 60.6716 342.727 60.0696 342.769 59.6244 343.165 59.2982 343.612 59.3409 343.709 59.3503 343.806 59.3775 343.894 59.4216 344.428 59.6973 344.717 60.2896 344.606 60.8796 344.529 61.3565 344.078 61.6802 343.602 61.6028 343.547 61.5937 343.492 61.5794 343.44 61.56Z" fill="#FFFFFF" fill-rule="nonzero" fill-opacity="1" transform="matrix(1.05451 0 0 1 503.423 87)"/><path d="M342.598 66.1608C342.125 65.9194 341.882 65.3803 342.014 64.8648 342.044 64.4543 342.397 64.1436 342.808 64.1714 342.879 64.1763 342.951 64.1915 343.019 64.2168 343.476 64.4747 343.712 64.9996 343.602 65.5128 343.44 66.0636 343.019 66.3552 342.598 66.1608Z" fill="#FFFFFF" fill-rule="nonzero" fill-opacity="1" transform="matrix(1.05451 0 0 1 503.423 87)"/><path d="M352.026 36.2556C352.693 36.5316 353.131 37.1848 353.128 37.908 353.128 38.5236 352.447 38.718 351.734 38.3616 351.054 38.059 350.613 37.3886 350.6 36.6444 350.73 36.0612 351.346 35.8992 352.026 36.2556Z" fill="#FFFFFF" fill-rule="nonzero" fill-opacity="1" transform="matrix(1.05451 0 0 1 503.423 87)"/><path d="M355.136 37.5192C355.953 37.9278 356.484 38.7455 356.53 39.6576 356.53 40.4028 355.72 40.662 354.812 40.2084 353.976 39.8053 353.439 38.9659 353.419 38.0376 353.516 37.3248 354.262 37.098 355.136 37.5192Z" fill="#FFFFFF" fill-rule="nonzero" fill-opacity="1" transform="matrix(1.05451 0 0 1 503.423 87)"/><path d="M376.52 36.3852C376.196 36.1908 375.937 36.3852 375.97 36.5796 376.089 36.9752 376.342 37.3183 376.682 37.5516 377.039 37.7784 377.266 37.5516 377.233 37.3572 377.126 36.9551 376.87 36.6078 376.52 36.3852Z" fill="#FFFFFF" fill-rule="nonzero" fill-opacity="1" transform="matrix(1.05451 0 0 1 503.423 87)"/><path d="M374.026 34.7004C373.572 34.4412 373.248 34.506 373.28 34.8948 373.416 35.4232 373.753 35.8772 374.22 36.1584 374.674 36.4176 374.998 36.3528 374.965 35.9316 374.81 35.4223 374.476 34.9858 374.026 34.7004Z" fill="#FFFFFF" fill-rule="nonzero" fill-opacity="1" transform="matrix(1.05451 0 0 1 503.423 87)"/><path d="M367.092 57.9312C366.476 57.5424 366.023 57.9312 365.99 58.5144 366.049 59.3046 366.438 60.0336 367.06 60.5232 367.675 60.8796 368.129 60.5232 368.129 59.8752 368.103 59.1015 367.721 58.3832 367.092 57.9312Z" fill="#FFFFFF" fill-rule="nonzero" fill-opacity="1" transform="matrix(1.05451 0 0 1 503.423 87)"/><path d="M364.111 52.0344C363.431 51.6456 362.88 52.0344 362.815 52.6824 362.864 53.541 363.324 54.3238 364.046 54.7884 364.759 55.1772 365.31 54.7884 365.31 54.1404 365.268 53.288 364.821 52.5065 364.111 52.0344Z" fill="#FFFFFF" fill-rule="nonzero" fill-opacity="1" transform="matrix(1.05451 0 0 1 503.423 87)"/><path d="M361.001 46.9476C360.288 46.5912 359.737 46.9476 359.672 47.4984 359.698 48.3129 360.155 49.0526 360.871 49.4424 361.552 49.8312 362.102 49.4424 362.167 48.8592 362.102 48.0735 361.668 47.3646 361.001 46.9476Z" fill="#FFFFFF" fill-rule="nonzero" fill-opacity="1" transform="matrix(1.05451 0 0 1 503.423 87)"/><path d="M359.089 26.082C358.474 25.758 357.955 25.8228 357.923 26.2764 357.89 26.73 358.376 27.3132 358.992 27.6696 359.608 28.026 360.126 27.9288 360.158 27.4752 360.045 26.8671 359.646 26.3498 359.089 26.082Z" fill="#FFFFFF" fill-rule="nonzero" fill-opacity="1" transform="matrix(1.05451 0 0 1 503.423 87)"/><path d="M371.822 35.3484C371.336 35.0568 370.98 35.154 371.012 35.5752 371.148 36.1036 371.485 36.5576 371.952 36.8388 372.47 37.1304 372.794 37.0332 372.762 36.612 372.626 36.0836 372.289 35.6296 371.822 35.3484Z" fill="#FFFFFF" fill-rule="nonzero" fill-opacity="1" transform="matrix(1.05451 0 0 1 503.423 87)"/><path d="M369.36 33.8256C368.809 33.534 368.453 33.6312 368.453 34.0524 368.595 34.6126 368.958 35.0918 369.457 35.3808 369.976 35.6724 370.332 35.5752 370.332 35.1216 370.186 34.5805 369.84 34.1159 369.36 33.8256Z" fill="#FFFFFF" fill-rule="nonzero" fill-opacity="1" transform="matrix(1.05451 0 0 1 503.423 87)"/><path d="M364.273 32.9832C363.69 32.6592 363.204 32.7564 363.204 33.2424 363.317 33.8745 363.709 34.4218 364.273 34.7328 364.889 35.0568 365.375 34.9596 365.375 34.4412 365.252 33.811 364.847 33.2725 364.273 32.9832Z" fill="#FFFFFF" fill-rule="nonzero" fill-opacity="1" transform="matrix(1.05451 0 0 1 503.423 87)"/><path d="M366.833 32.4C366.25 32.076 365.828 32.1732 365.828 32.6268 365.939 33.2447 366.334 33.7741 366.898 34.0524 367.481 34.3764 367.902 34.2792 367.902 33.7932 367.743 33.2058 367.361 32.7049 366.833 32.4Z" fill="#FFFFFF" fill-rule="nonzero" fill-opacity="1" transform="matrix(1.05451 0 0 1 503.423 87)"/><path d="M364.176 30.78C363.528 30.4236 363.01 30.5208 363.01 31.0392 363.146 31.7064 363.573 32.2774 364.176 32.5944 364.856 32.9508 365.342 32.8212 365.342 32.3028 365.19 31.6514 364.766 31.0969 364.176 30.78Z" fill="#FFFFFF" fill-rule="nonzero" fill-opacity="1" transform="matrix(1.05451 0 0 1 503.423 87)"/><path d="M361.616 31.428C360.936 31.0716 360.385 31.1688 360.353 31.6872 360.456 32.3935 360.907 33.001 361.552 33.3072 362.232 33.696 362.783 33.5664 362.783 33.0156 362.656 32.3364 362.226 31.7519 361.616 31.428Z" fill="#FFFFFF" fill-rule="nonzero" fill-opacity="1" transform="matrix(1.05451 0 0 1 503.423 87)"/><path d="M358.02 42.12C357.307 41.7636 356.724 41.958 356.627 42.606 356.662 43.4011 357.119 44.1168 357.826 44.4852 358.571 44.874 359.154 44.4852 359.186 43.9668 359.144 43.1902 358.704 42.491 358.02 42.12Z" fill="#FFFFFF" fill-rule="nonzero" fill-opacity="1" transform="matrix(1.05451 0 0 1 503.423 87)"/><path d="M358.247 39.2688C357.469 38.88 356.854 39.0744 356.756 39.7548 356.805 40.5978 357.297 41.3508 358.052 41.7312 358.83 42.1524 359.478 41.9256 359.51 41.2128 359.452 40.3908 358.973 39.6566 358.247 39.2688Z" fill="#FFFFFF" fill-rule="nonzero" fill-opacity="1" transform="matrix(1.05451 0 0 1 503.423 87)"/><path d="M358.409 36.6444C357.599 36.2232 356.918 36.4176 356.821 37.098 356.912 37.9861 357.434 38.7731 358.214 39.204 359.089 39.6252 359.737 39.3984 359.802 38.6856 359.718 37.8111 359.193 37.0406 358.409 36.6444Z" fill="#FFFFFF" fill-rule="nonzero" fill-opacity="1" transform="matrix(1.05451 0 0 1 503.423 87)"/><path d="M358.571 34.182C357.793 33.7608 357.113 33.9228 357.048 34.5708 357.129 35.421 357.644 36.1691 358.409 36.5472 359.251 36.9684 359.899 36.774 359.932 36.0936 359.847 35.2606 359.332 34.5335 358.571 34.182Z" fill="#FFFFFF" fill-rule="nonzero" fill-opacity="1" transform="matrix(1.05451 0 0 1 503.423 87)"/><path d="M358.7 32.0436C358.02 31.6548 357.437 31.7844 357.404 32.3352 357.469 33.0726 357.926 33.7174 358.603 34.02 359.316 34.4088 359.867 34.2468 359.899 33.696 359.831 32.968 359.371 32.3352 358.7 32.0436Z" fill="#FFFFFF" fill-rule="nonzero" fill-opacity="1" transform="matrix(1.05451 0 0 1 503.423 87)"/><path d="M358.862 29.8404C358.085 29.4516 357.469 29.5812 357.437 30.132 357.531 30.9101 358.023 31.5839 358.733 31.914 359.51 32.3352 360.126 32.1732 360.158 31.59 360.035 30.8308 359.553 30.1783 358.862 29.8404Z" fill="#FFFFFF" fill-rule="nonzero" fill-opacity="1" transform="matrix(1.05451 0 0 1 503.423 87)"/><path d="M358.96 27.864C358.214 27.4752 357.631 27.5724 357.566 28.0908 357.677 28.8378 358.15 29.4816 358.83 29.808 359.608 30.1968 360.191 30.0672 360.223 29.5164 360.094 28.7935 359.624 28.1778 358.96 27.864Z" fill="#FFFFFF" fill-rule="nonzero" fill-opacity="1" transform="matrix(1.05451 0 0 1 503.423 87)"/><path d="M354.164 21.7728C353.646 21.5136 353.192 21.546 353.16 21.7728 353.128 21.9996 353.484 22.5828 354.002 22.8744 354.521 23.166 354.974 23.1012 355.007 22.8744 355.039 22.6476 354.65 22.0644 354.164 21.7728Z" fill="#FFFFFF" fill-rule="nonzero" fill-opacity="1" transform="matrix(1.05451 0 0 1 503.423 87)"/><path d="M354.262 20.25C353.776 19.9908 353.387 20.0232 353.354 20.25 353.322 20.4768 353.646 20.9628 354.132 21.222 354.618 21.4812 355.007 21.4164 355.039 21.222 355.072 21.0276 354.748 20.4768 354.262 20.25Z" fill="#FFFFFF" fill-rule="nonzero" fill-opacity="1" transform="matrix(1.05451 0 0 1 503.423 87)"/><path d="M354.359 18.7596C353.938 18.5652 353.614 18.5652 353.549 18.7596 353.64 19.1299 353.905 19.4323 354.262 19.5696 354.683 19.7964 355.007 19.764 355.039 19.5696 355.072 19.3752 354.78 18.9864 354.359 18.7596Z" fill="#FFFFFF" fill-rule="nonzero" fill-opacity="1" transform="matrix(1.05451 0 0 1 503.423 87)"/><path d="M354.424 17.3664C354.035 17.172 353.743 17.1396 353.711 17.3664 353.678 17.5932 353.938 17.8848 354.326 18.1116 354.715 18.3384 355.007 18.306 355.039 18.1116 355.072 17.9172 354.78 17.5608 354.424 17.3664Z" fill="#FFFFFF" fill-rule="nonzero" fill-opacity="1" transform="matrix(1.05451 0 0 1 503.423 87)"/><path d="M354.488 16.2C354.132 16.0056 353.84 15.9732 353.808 16.2 353.776 16.4268 354.035 16.686 354.391 16.8804 354.748 17.0748 355.039 17.1072 355.072 16.8804 355.104 16.6536 354.812 16.2 354.488 16.2Z" fill="#FFFFFF" fill-rule="nonzero" fill-opacity="1" transform="matrix(1.05451 0 0 1 503.423 87)"/><path d="M354.553 14.7096C354.229 14.7096 354.002 14.5152 353.97 14.7096 353.938 14.904 354.197 15.1308 354.488 15.2928 354.78 15.4548 355.039 15.4872 355.072 15.2928 355.104 15.0984 354.877 14.8716 354.553 14.7096Z" fill="#FFFFFF" fill-rule="nonzero" fill-opacity="1" transform="matrix(1.05451 0 0 1 503.423 87)"/><path d="M354.618 13.5432C354.326 13.5432 354.1 13.3488 354.067 13.5432 354.035 13.7376 354.262 13.932 354.553 14.094 354.845 14.256 355.072 14.2884 355.104 14.094 355.136 13.8996 354.877 13.7052 354.618 13.5432Z" fill="#FFFFFF" fill-rule="nonzero" fill-opacity="1" transform="matrix(1.05451 0 0 1 503.423 87)"/><path d="M354.683 12.3444C354.424 12.1824 354.197 12.15 354.197 12.3444 354.197 12.5388 354.359 12.6684 354.618 12.798 354.877 12.9276 355.072 12.9924 355.104 12.798 355.136 12.6036 354.91 12.474 354.683 12.3444Z" fill="#FFFFFF" fill-rule="nonzero" fill-opacity="1" transform="matrix(1.05451 0 0 1 503.423 87)"/><path d="M351.378 40.824C351.929 41.1156 352.415 40.824 352.48 40.4676 352.483 39.8983 352.152 39.3796 351.637 39.1392 351.086 38.8476 350.6 39.1392 350.536 39.4956 350.526 40.0671 350.856 40.5901 351.378 40.824Z" fill="#FFFFFF" fill-rule="nonzero" fill-opacity="1" transform="matrix(1.05451 0 0 1 503.423 87)"/><path d="M350.892 43.902C351.41 44.1612 351.864 43.902 351.961 43.5132 351.977 42.9491 351.66 42.4281 351.151 42.1848 350.633 41.958 350.179 42.1848 350.082 42.5736 350.066 43.1377 350.383 43.6587 350.892 43.902Z" fill="#FFFFFF" fill-rule="nonzero" fill-opacity="1" transform="matrix(1.05451 0 0 1 503.423 87)"/><path d="M350.179 47.0448C350.698 47.304 351.151 47.0448 351.216 46.6236 351.255 46.0628 350.947 45.5346 350.438 45.2952 349.92 45.036 349.466 45.2952 349.369 45.7164 349.353 46.2805 349.671 46.8015 350.179 47.0448Z" fill="#FFFFFF" fill-rule="nonzero" fill-opacity="1" transform="matrix(1.05451 0 0 1 503.423 87)"/><path d="M349.499 50.4792C349.797 50.6791 350.199 50.6004 350.4 50.3036 350.455 50.2203 350.49 50.1251 350.503 50.0256 350.536 49.5004 350.257 49.0047 349.79 48.762 349.492 48.5621 349.091 48.6408 348.89 48.9376 348.835 49.0209 348.799 49.1161 348.786 49.2156 348.724 49.747 349.013 50.2576 349.499 50.4792Z" fill="#FFFFFF" fill-rule="nonzero" fill-opacity="1" transform="matrix(1.05451 0 0 1 503.423 87)"/><path d="M348.689 53.9136C348.977 54.0931 349.356 54.0046 349.538 53.716 349.59 53.6288 349.622 53.53 349.628 53.4276 349.667 52.9267 349.398 52.452 348.948 52.2288 348.66 52.0477 348.281 52.1345 348.099 52.4222 348.051 52.501 348.018 52.5901 348.008 52.6824 347.963 53.1927 348.232 53.679 348.689 53.9136Z" fill="#FFFFFF" fill-rule="nonzero" fill-opacity="1" transform="matrix(1.05451 0 0 1 503.423 87)"/><path d="M347.749 57.996C348.028 58.1574 348.384 58.0618 348.546 57.7831 348.595 57.6999 348.621 57.6059 348.624 57.51 348.689 57.0295 348.443 56.5607 348.008 56.3436 347.73 56.1813 347.373 56.2752 347.211 56.5536 347.166 56.6281 347.14 56.7113 347.134 56.7972 347.043 57.2903 347.296 57.7831 347.749 57.996Z" fill="#FFFFFF" fill-rule="nonzero" fill-opacity="1" transform="matrix(1.05451 0 0 1 503.423 87)"/><path d="M361.552 29.3868C360.936 29.0304 360.418 29.1276 360.385 29.6136 360.515 30.2504 360.933 30.7901 361.519 31.0716 362.135 31.3956 362.621 31.2984 362.653 30.8124 362.53 30.19 362.122 29.6615 361.552 29.3868Z" fill="#FFFFFF" fill-rule="nonzero" fill-opacity="1" transform="matrix(1.05451 0 0 1 503.423 87)"/><path d="M361.39 33.6636C360.839 33.372 360.385 33.5016 360.353 33.9552 360.444 34.5465 360.819 35.0558 361.357 35.316 361.94 35.6076 362.362 35.5104 362.394 35.0244 362.29 34.4393 361.918 33.9364 361.39 33.6636Z" fill="#FFFFFF" fill-rule="nonzero" fill-opacity="1" transform="matrix(1.05451 0 0 1 503.423 87)"/><path d="M361.357 35.8992C360.709 35.5428 360.223 35.7048 360.158 36.2232 360.249 36.9159 360.674 37.5208 361.292 37.8432 361.94 38.1996 362.459 38.0376 362.459 37.4868 362.394 36.8019 361.976 36.2005 361.357 35.8992Z" fill="#FFFFFF" fill-rule="nonzero" fill-opacity="1" transform="matrix(1.05451 0 0 1 503.423 87)"/><path d="M361.033 43.8372C360.385 43.5132 359.899 43.8372 359.867 44.2908 359.896 45.012 360.301 45.6649 360.936 46.008 361.584 46.3644 362.07 46.008 362.102 45.522 362.047 44.8183 361.646 44.1878 361.033 43.8372Z" fill="#FFFFFF" fill-rule="nonzero" fill-opacity="1" transform="matrix(1.05451 0 0 1 503.423 87)"/><path d="M371.628 33.1452C371.077 32.8536 370.721 32.9508 370.753 33.372 370.883 33.9461 371.249 34.4396 371.758 34.7328 372.308 35.0244 372.665 34.9272 372.632 34.506 372.49 33.9384 372.127 33.4498 371.628 33.1452Z" fill="#FFFFFF" fill-rule="nonzero" fill-opacity="1" transform="matrix(1.05451 0 0 1 503.423 87)"/><path d="M363.917 55.8576C363.334 55.5336 362.88 55.8576 362.815 56.4408 362.861 57.1737 363.243 57.844 363.852 58.2552 364.435 58.5792 364.889 58.2552 364.921 57.6396 364.882 56.9213 364.513 56.262 363.917 55.8576Z" fill="#FFFFFF" fill-rule="nonzero" fill-opacity="1" transform="matrix(1.05451 0 0 1 503.423 87)"/><path d="M367.124 61.884C366.574 61.5276 366.12 61.884 366.12 62.4996 366.143 63.2487 366.515 63.9437 367.124 64.3788 367.675 64.7352 368.096 64.3788 368.096 63.7632 368.08 63.0199 367.724 62.3259 367.124 61.884Z" fill="#FFFFFF" fill-rule="nonzero" fill-opacity="1" transform="matrix(1.05451 0 0 1 503.423 87)"/><path d="M360.742 50.2848C360.094 49.9284 359.575 50.2848 359.51 50.8356 359.533 51.6009 359.948 52.3001 360.612 52.6824 361.26 53.0388 361.778 52.6824 361.811 52.0992 361.791 51.3504 361.386 50.6645 360.742 50.2848Z" fill="#FFFFFF" fill-rule="nonzero" fill-opacity="1" transform="matrix(1.05451 0 0 1 503.423 87)"/><path d="M357.761 45.36C357.145 45.036 356.594 45.36 356.53 45.846 356.559 46.5672 356.964 47.2201 357.599 47.5632 358.247 47.8872 358.765 47.5632 358.798 47.0448 358.778 46.3382 358.383 45.6957 357.761 45.36Z" fill="#FFFFFF" fill-rule="nonzero" fill-opacity="1" transform="matrix(1.05451 0 0 1 503.423 87)"/><path d="M354.877 40.5C354.164 40.1436 353.581 40.338 353.484 40.9536 353.487 41.7166 353.928 42.4103 354.618 42.7356 355.331 43.092 355.914 42.7356 355.979 42.2172 355.95 41.4869 355.528 40.8295 354.877 40.5Z" fill="#FFFFFF" fill-rule="nonzero" fill-opacity="1" transform="matrix(1.05451 0 0 1 503.423 87)"/><path d="M361.163 41.148C360.58 40.824 360.126 41.148 360.061 41.5368 360.136 42.1923 360.521 42.7716 361.098 43.092 361.681 43.416 362.135 43.092 362.167 42.6708 362.112 42.026 361.733 41.4529 361.163 41.148Z" fill="#FFFFFF" fill-rule="nonzero" fill-opacity="1" transform="matrix(1.05451 0 0 1 503.423 87)"/><path d="M359.154 24.3972C358.603 24.1056 358.182 24.138 358.15 24.3972 358.117 24.6564 358.538 25.272 359.089 25.596 359.64 25.92 360.094 25.8228 360.126 25.434 359.958 24.9706 359.604 24.5963 359.154 24.3972Z" fill="#FFFFFF" fill-rule="nonzero" fill-opacity="1" transform="matrix(1.05451 0 0 1 503.423 87)"/><path d="M369.166 31.8816C368.744 31.6548 368.42 31.7196 368.42 32.0436 368.534 32.5043 368.842 32.8941 369.263 33.1128 369.684 33.372 370.008 33.3072 369.976 32.9508 369.865 32.4975 369.571 32.1105 369.166 31.8816Z" fill="#FFFFFF" fill-rule="nonzero" fill-opacity="1" transform="matrix(1.05451 0 0 1 503.423 87)"/><path d="M364.306 37.7136C363.82 37.4544 363.431 37.5516 363.398 38.0052 363.483 38.5469 363.82 39.0167 364.306 39.2688 364.792 39.528 365.18 39.4308 365.18 38.9772 365.086 38.4488 364.766 37.9877 364.306 37.7136Z" fill="#FFFFFF" fill-rule="nonzero" fill-opacity="1" transform="matrix(1.05451 0 0 1 503.423 87)"/><path d="M364.046 48.7944C363.463 48.438 362.977 48.7944 362.945 49.2804 362.997 50.0191 363.392 50.6908 364.014 51.0948 364.63 51.4188 365.116 51.0948 365.116 50.544 365.07 49.8205 364.668 49.166 364.046 48.7944Z" fill="#FFFFFF" fill-rule="nonzero" fill-opacity="1" transform="matrix(1.05451 0 0 1 503.423 87)"/><path d="M361.26 38.556C360.709 38.2644 360.256 38.394 360.223 38.9124 360.275 39.5329 360.641 40.0833 361.195 40.3704 361.778 40.6944 362.232 40.3704 362.264 40.014 362.193 39.3909 361.817 38.844 361.26 38.556Z" fill="#FFFFFF" fill-rule="nonzero" fill-opacity="1" transform="matrix(1.05451 0 0 1 503.423 87)"/><path d="M367.124 41.8608C366.574 41.5368 366.152 41.6988 366.152 42.2172 366.23 42.8545 366.603 43.4186 367.157 43.74 367.708 44.064 368.129 43.902 368.129 43.3836 368.058 42.7444 367.685 42.1783 367.124 41.8608Z" fill="#FFFFFF" fill-rule="nonzero" fill-opacity="1" transform="matrix(1.05451 0 0 1 503.423 87)"/><path d="M369.522 68.6556C369.068 68.3316 368.744 68.6556 368.744 69.174 368.761 69.844 369.055 70.4771 369.554 70.9236 369.976 71.2476 370.3 70.9236 370.3 70.3404 370.28 69.6963 369.998 69.0878 369.522 68.6556Z" fill="#FFFFFF" fill-rule="nonzero" fill-opacity="1" transform="matrix(1.05451 0 0 1 503.423 87)"/><path d="M366.898 34.5384C366.412 34.2468 366.023 34.344 366.023 34.7652 366.117 35.3196 366.467 35.7981 366.962 36.0612 367.481 36.3528 367.87 36.2556 367.837 35.802 367.743 35.2557 367.393 34.7869 366.898 34.5384Z" fill="#FFFFFF" fill-rule="nonzero" fill-opacity="1" transform="matrix(1.05451 0 0 1 503.423 87)"/><path d="M356.594 23.0688C356.076 22.8096 355.687 22.8744 355.655 23.0688 355.622 23.2632 355.979 23.8464 356.497 24.138 357.016 24.4296 357.404 24.3324 357.437 24.138 357.33 23.6732 357.022 23.2806 356.594 23.0688Z" fill="#FFFFFF" fill-rule="nonzero" fill-opacity="1" transform="matrix(1.05451 0 0 1 503.423 87)"/><path d="M361.649 24.138C361.163 23.8788 360.806 23.9436 360.774 24.138 360.742 24.3324 361.163 24.9156 361.616 25.2072 362.07 25.4988 362.491 25.4016 362.491 25.2072 362.378 24.7463 362.07 24.3568 361.649 24.138Z" fill="#FFFFFF" fill-rule="nonzero" fill-opacity="1" transform="matrix(1.05451 0 0 1 503.423 87)"/><path d="M366.736 30.5208C366.314 30.294 366.023 30.3588 366.055 30.6828 366.143 31.0861 366.402 31.4302 366.768 31.6224 367.189 31.8492 367.481 31.7844 367.481 31.6224 367.41 31.1622 367.137 30.7579 366.736 30.5208Z" fill="#FFFFFF" fill-rule="nonzero" fill-opacity="1" transform="matrix(1.05451 0 0 1 503.423 87)"/><path d="M364.176 40.2732C363.69 39.9816 363.301 40.2732 363.269 40.5648 363.327 41.1405 363.667 41.6499 364.176 41.9256 364.694 42.2172 365.083 41.9256 365.083 41.6016 365.018 41.0359 364.681 40.5382 364.176 40.2732Z" fill="#FFFFFF" fill-rule="nonzero" fill-opacity="1" transform="matrix(1.05451 0 0 1 503.423 87)"/><path d="M366.962 39.3336C366.541 39.0744 366.185 39.3336 366.185 39.5928 366.269 40.082 366.567 40.5087 366.995 40.7592 367.448 41.0184 367.772 40.7592 367.74 40.5 367.682 40.0098 367.393 39.5769 366.962 39.3336Z" fill="#FFFFFF" fill-rule="nonzero" fill-opacity="1" transform="matrix(1.05451 0 0 1 503.423 87)"/><path d="M369.846 43.578C369.36 43.2864 369.004 43.578 369.004 43.902 369.101 44.4797 369.444 44.9874 369.943 45.2952 370.429 45.6192 370.753 45.2952 370.753 44.9712 370.669 44.3961 370.339 43.8864 369.846 43.578Z" fill="#FFFFFF" fill-rule="nonzero" fill-opacity="1" transform="matrix(1.05451 0 0 1 503.423 87)"/><path d="M374.22 36.9684C373.831 36.7416 373.604 36.8064 373.604 37.1628 373.724 37.5765 373.987 37.9333 374.35 38.1672 374.706 38.394 374.965 38.1672 374.933 37.9728 374.836 37.5571 374.58 37.1962 374.22 36.9684Z" fill="#FFFFFF" fill-rule="nonzero" fill-opacity="1" transform="matrix(1.05451 0 0 1 503.423 87)"/><path d="M361.649 22.68C361.228 22.4532 360.904 22.4532 360.904 22.68 360.904 22.9068 361.228 23.328 361.649 23.5872 362.07 23.8464 362.394 23.7816 362.394 23.5872 362.394 23.3928 362.07 22.8744 361.649 22.68Z" fill="#FFFFFF" fill-rule="nonzero" fill-opacity="1" transform="matrix(1.05451 0 0 1 503.423 87)"/><path d="M361.616 25.92C361.163 25.6608 360.806 25.7256 360.806 25.92 360.884 26.3554 361.176 26.7218 361.584 26.892 362.038 27.1512 362.362 27.0864 362.362 26.892 362.287 26.466 362.008 26.1033 361.616 25.92Z" fill="#FFFFFF" fill-rule="nonzero" fill-opacity="1" transform="matrix(1.05451 0 0 1 503.423 87)"/><path d="M370.008 64.5408C369.49 64.1844 369.101 64.5408 369.101 65.124 369.14 65.8446 369.48 66.5153 370.04 66.9708 370.559 67.3272 370.915 66.9708 370.915 66.3876 370.873 65.6751 370.546 65.0096 370.008 64.5408Z" fill="#FFFFFF" fill-rule="nonzero" fill-opacity="1" transform="matrix(1.05451 0 0 1 503.423 87)"/><path d="M359.251 22.8744C358.798 22.6476 358.474 22.68 358.441 22.8744 358.535 23.284 358.811 23.6292 359.186 23.814 359.64 24.0408 359.964 24.0084 359.996 23.814 359.902 23.4044 359.627 23.0592 359.251 22.8744Z" fill="#FFFFFF" fill-rule="nonzero" fill-opacity="1" transform="matrix(1.05451 0 0 1 503.423 87)"/><path d="M364.176 35.3808C363.755 35.1216 363.431 35.2188 363.398 35.5752 363.473 36.0434 363.758 36.4506 364.176 36.6768 364.63 36.9036 364.954 36.6768 364.954 36.45 364.879 35.9899 364.591 35.5924 364.176 35.3808Z" fill="#FFFFFF" fill-rule="nonzero" fill-opacity="1" transform="matrix(1.05451 0 0 1 503.423 87)"/><path d="M364.176 29.16C363.82 28.9656 363.528 29.16 363.528 29.16 363.596 29.5286 363.836 29.8421 364.176 30.0024 364.532 30.1968 364.824 30.0024 364.824 30.0024 364.756 29.6338 364.516 29.3203 364.176 29.16Z" fill="#FFFFFF" fill-rule="nonzero" fill-opacity="1" transform="matrix(1.05451 0 0 1 503.423 87)"/><path d="M364.111 45.8784C363.69 45.6516 363.334 45.8784 363.334 46.2024 363.366 46.7101 363.645 47.1699 364.079 47.4336 364.532 47.6604 364.856 47.4336 364.856 47.0772 364.808 46.5831 364.532 46.1395 364.111 45.8784Z" fill="#FFFFFF" fill-rule="nonzero" fill-opacity="1" transform="matrix(1.05451 0 0 1 503.423 87)"/><path d="M367.157 54.3348C366.671 54.0108 366.282 54.3348 366.282 54.7884 366.324 55.4212 366.645 56.0028 367.157 56.376 367.675 56.6676 368.032 56.376 368.032 55.89 368.002 55.2621 367.678 54.6847 367.157 54.3348Z" fill="#FFFFFF" fill-rule="nonzero" fill-opacity="1" transform="matrix(1.05451 0 0 1 503.423 87)"/><path d="M361.584 27.8316C361.26 27.6372 361.001 27.8316 361.001 27.8316 361.062 28.1594 361.279 28.4368 361.584 28.5768 361.908 28.7388 362.167 28.5768 362.167 28.5768 362.109 28.2466 361.892 27.9671 361.584 27.8316Z" fill="#FFFFFF" fill-rule="nonzero" fill-opacity="1" transform="matrix(1.05451 0 0 1 503.423 87)"/><path d="M366.898 65.934C366.509 65.6748 366.217 65.934 366.185 66.42 366.191 66.9627 366.441 67.474 366.865 67.8132 367.286 68.0724 367.578 67.8132 367.578 67.3272 367.572 66.7845 367.322 66.2732 366.898 65.934Z" fill="#FFFFFF" fill-rule="nonzero" fill-opacity="1" transform="matrix(1.05451 0 0 1 503.423 87)"/><path d="M369.36 36.1908C368.939 35.964 368.647 36.0288 368.647 36.3852 368.735 36.8394 369.02 37.2315 369.425 37.4544 369.846 37.7136 370.138 37.4544 370.138 37.26 370.024 36.8171 369.746 36.4344 369.36 36.1908Z" fill="#FFFFFF" fill-rule="nonzero" fill-opacity="1" transform="matrix(1.05451 0 0 1 503.423 87)"/><path d="M364.111 24.0408C363.755 23.8464 363.463 24.0408 363.463 24.0408 363.463 24.0408 363.787 24.6564 364.144 24.8832 364.5 25.11 364.824 24.8832 364.824 24.8832 364.707 24.5199 364.451 24.2174 364.111 24.0408Z" fill="#FFFFFF" fill-rule="nonzero" fill-opacity="1" transform="matrix(1.05451 0 0 1 503.423 87)"/><path d="M379.08 38.0376C378.788 37.8432 378.594 38.0376 378.626 38.0376 378.737 38.3862 378.95 38.6921 379.242 38.9124 379.534 39.1068 379.728 38.9124 379.696 38.7504 379.569 38.4549 379.355 38.2058 379.08 38.0376Z" fill="#FFFFFF" fill-rule="nonzero" fill-opacity="1" transform="matrix(1.05451 0 0 1 503.423 87)"/><path d="M372.6 45.36C372.179 45.0684 371.887 45.36 371.887 45.6516 371.968 46.1933 372.273 46.6758 372.73 46.98 373.151 47.2392 373.442 46.98 373.442 46.656 373.361 46.123 373.054 45.6513 372.6 45.36Z" fill="#FFFFFF" fill-rule="nonzero" fill-opacity="1" transform="matrix(1.05451 0 0 1 503.423 87)"/><path d="M371.272 73.0296C370.915 72.738 370.656 73.0296 370.656 73.5156 370.666 74.1166 370.899 74.6927 371.304 75.1356 371.693 75.4272 371.952 75.1356 371.92 74.6496 371.913 74.0473 371.683 73.4689 371.272 73.0296Z" fill="#FFFFFF" fill-rule="nonzero" fill-opacity="1" transform="matrix(1.05451 0 0 1 503.423 87)"/><path d="M363.787 59.8752C363.334 59.616 363.01 59.8752 362.977 60.3612 362.98 60.9204 363.259 61.4424 363.722 61.7544 364.144 62.0136 364.5 61.7544 364.532 61.2684 364.516 60.7134 364.238 60.1982 363.787 59.8752Z" fill="#FFFFFF" fill-rule="nonzero" fill-opacity="1" transform="matrix(1.05451 0 0 1 503.423 87)"/><path d="M369.749 41.1156C369.425 41.1156 369.198 41.1156 369.198 41.31 369.263 41.6693 369.473 41.9859 369.781 42.1848 370.105 42.3792 370.332 42.1848 370.3 41.9904 370.238 41.6376 370.04 41.3233 369.749 41.1156Z" fill="#FFFFFF" fill-rule="nonzero" fill-opacity="1" transform="matrix(1.05451 0 0 1 503.423 87)"/><path d="M364.014 22.68C363.69 22.68 363.431 22.68 363.431 22.68 363.525 22.9772 363.735 23.2233 364.014 23.3604 364.338 23.5224 364.597 23.5224 364.597 23.3604 364.494 23.07 364.286 22.8279 364.014 22.68Z" fill="#FFFFFF" fill-rule="nonzero" fill-opacity="1" transform="matrix(1.05451 0 0 1 503.423 87)"/><path d="M366.12 23.8788C365.861 23.8788 365.666 23.8788 365.699 23.8788 365.731 23.8788 365.926 24.3 366.185 24.4296 366.444 24.5592 366.638 24.5916 366.638 24.4296 366.538 24.189 366.353 23.9931 366.12 23.8788Z" fill="#FFFFFF" fill-rule="nonzero" fill-opacity="1" transform="matrix(1.05451 0 0 1 503.423 87)"/><path d="M360.58 54.3672C360.191 54.1404 359.867 54.3672 359.834 54.756 359.838 55.2213 360.084 55.6515 360.482 55.89 360.674 56.0523 360.959 56.029 361.121 55.8378 361.202 55.7445 361.241 55.623 361.228 55.5012 361.215 55.0392 360.972 54.6144 360.58 54.3672Z" fill="#FFFFFF" fill-rule="nonzero" fill-opacity="1" transform="matrix(1.05451 0 0 1 503.423 87)"/><path d="M357.372 49.0212C356.983 48.8268 356.659 49.0212 356.627 49.3452 356.62 49.7878 356.857 50.1989 357.242 50.4144 357.631 50.6088 357.955 50.4144 357.988 50.0904 358.004 49.6459 357.764 49.2312 357.372 49.0212Z" fill="#FFFFFF" fill-rule="nonzero" fill-opacity="1" transform="matrix(1.05451 0 0 1 503.423 87)"/><path d="M354.424 44.064C354.035 43.8696 353.711 44.064 353.646 44.3232 353.64 44.7489 353.879 45.14 354.262 45.3276 354.65 45.522 354.974 45.3276 355.007 45.036 355.007 44.6291 354.783 44.2555 354.424 44.064Z" fill="#FFFFFF" fill-rule="nonzero" fill-opacity="1" transform="matrix(1.05451 0 0 1 503.423 87)"/><path d="M366.12 22.4532C365.828 22.4532 365.634 22.4532 365.634 22.4532 365.728 22.706 365.913 22.9143 366.152 23.0364 366.444 23.0364 366.671 23.0364 366.638 23.0364 366.544 22.7836 366.36 22.5753 366.12 22.4532Z" fill="#FFFFFF" fill-rule="nonzero" fill-opacity="1" transform="matrix(1.05451 0 0 1 503.423 87)"/><path d="M367.934 22.4856C367.675 22.4856 367.513 22.4856 367.513 22.4856 367.513 22.4856 367.74 22.8744 367.967 23.004 368.194 23.1336 368.388 23.004 368.388 23.004 368.304 22.7816 368.145 22.5972 367.934 22.4856Z" fill="#FFFFFF" fill-rule="nonzero" fill-opacity="1" transform="matrix(1.05451 0 0 1 503.423 87)"/><path d="M375.322 47.466C375.03 47.2716 374.836 47.466 374.868 47.6604 374.923 48.0165 375.108 48.3395 375.386 48.5676 375.678 48.5676 375.872 48.5676 375.84 48.3408 375.778 47.9964 375.594 47.686 375.322 47.466Z" fill="#FFFFFF" fill-rule="nonzero" fill-opacity="1" transform="matrix(1.05451 0 0 1 503.423 87)"/><path d="M372.794 48.1464C372.47 47.952 372.211 48.1464 372.211 48.438 372.282 48.8722 372.529 49.258 372.892 49.5072 373.216 49.734 373.475 49.5072 373.442 49.248 373.384 48.8087 373.151 48.4118 372.794 48.1464Z" fill="#FFFFFF" fill-rule="nonzero" fill-opacity="1" transform="matrix(1.05451 0 0 1 503.423 87)"/><path d="M370.008 46.3968C369.684 46.2024 369.457 46.3968 369.457 46.656 369.496 47.0422 369.713 47.3886 370.04 47.5956 370.364 47.8224 370.624 47.5956 370.591 47.3688 370.539 46.9781 370.329 46.6262 370.008 46.3968Z" fill="#FFFFFF" fill-rule="nonzero" fill-opacity="1" transform="matrix(1.05451 0 0 1 503.423 87)"/><path d="M367.124 44.6796C366.8 44.6796 366.574 44.6796 366.574 44.9064 366.616 45.2576 366.82 45.5693 367.124 45.7488 367.416 45.9432 367.643 45.7488 367.643 45.522 367.607 45.1766 367.416 44.8662 367.124 44.6796Z" fill="#FFFFFF" fill-rule="nonzero" fill-opacity="1" transform="matrix(1.05451 0 0 1 503.423 87)"/><path d="M364.176 42.9948C363.884 42.9948 363.625 42.9948 363.625 43.2216 363.654 43.5689 363.865 43.8754 364.176 44.0316 364.468 44.226 364.727 44.0316 364.727 43.8372 364.675 43.4892 364.474 43.1811 364.176 42.9948Z" fill="#FFFFFF" fill-rule="nonzero" fill-opacity="1" transform="matrix(1.05451 0 0 1 503.423 87)"/><path d="M375.451 50.0904C375.192 49.896 374.998 50.0904 374.998 50.3172 375.049 50.6817 375.25 51.0089 375.548 51.2244 375.808 51.4188 376.002 51.2244 375.97 50.9976 375.921 50.6393 375.736 50.314 375.451 50.0904Z" fill="#FFFFFF" fill-rule="nonzero" fill-opacity="1" transform="matrix(1.05451 0 0 1 503.423 87)"/><path d="M378.238 52.1964C377.978 52.002 377.816 52.1964 377.849 52.3908 377.888 52.7443 378.063 53.0686 378.335 53.298 378.594 53.46 378.756 53.298 378.724 53.0712 378.659 52.7349 378.49 52.4281 378.238 52.1964Z" fill="#FFFFFF" fill-rule="nonzero" fill-opacity="1" transform="matrix(1.05451 0 0 1 503.423 87)"/><path d="M364.079 25.6932C363.755 25.4988 363.528 25.6932 363.528 25.6932 363.528 25.6932 363.787 26.2116 364.111 26.3736 364.435 26.5356 364.63 26.5356 364.63 26.3736 364.63 26.2116 364.37 25.92 364.079 25.6932Z" fill="#FFFFFF" fill-rule="nonzero" fill-opacity="1" transform="matrix(1.05451 0 0 1 503.423 87)"/><path d="M345.643 33.048C344.93 32.724 344.25 33.048 344.088 33.4368 344.049 34.169 344.477 34.8459 345.157 35.1216 345.902 35.4456 346.55 35.2836 346.712 34.7004 346.729 33.9824 346.304 33.327 345.643 33.048Z" fill="#FFFFFF" fill-rule="nonzero" fill-opacity="1" transform="matrix(1.05451 0 0 1 503.423 87)"/><path d="M342.5 31.2984C341.593 30.8772 340.718 31.0716 340.492 31.752 340.411 32.6654 340.955 33.5188 341.82 33.8256 342.76 34.2468 343.602 34.02 343.829 33.3072 343.894 32.4139 343.346 31.5897 342.5 31.2984Z" fill="#FFFFFF" fill-rule="nonzero" fill-opacity="1" transform="matrix(1.05451 0 0 1 503.423 87)"/><path d="M321.473 9.072C321.959 9.234 322.218 9.558 322.056 9.7848 321.673 9.99825 321.207 9.99825 320.825 9.7848 320.339 9.5904 320.08 9.2988 320.274 9.072 320.645 8.85787 321.102 8.85787 321.473 9.072Z" fill="#FFFFFF" fill-rule="nonzero" fill-opacity="1" transform="matrix(1.05451 0 0 1 503.423 87)"/><path d="M324.94 10.1412C325.555 10.368 325.847 10.7568 325.652 11.0484 325.458 11.34 324.81 11.4048 324.227 11.0484 323.644 10.692 323.32 10.4328 323.514 10.1412 323.708 9.8496 324.356 9.9468 324.94 10.1412Z" fill="#FFFFFF" fill-rule="nonzero" fill-opacity="1" transform="matrix(1.05451 0 0 1 503.423 87)"/><path d="M323.644 37.6164C324.139 37.768 324.418 38.2936 324.269 38.7896 324.266 38.7984 324.262 38.8068 324.259 38.8152 323.977 39.2989 323.369 39.4826 322.866 39.2364 322.382 39.1081 322.093 38.6111 322.222 38.127 322.23 38.0966 322.239 38.0668 322.25 38.0376 322.543 37.5668 323.139 37.3864 323.644 37.6164Z" fill="#FFFFFF" fill-rule="nonzero" fill-opacity="1" transform="matrix(1.05451 0 0 1 503.423 87)"/><path d="M328.601 35.1216C329.294 35.3254 329.696 36.0447 329.508 36.7416 329.139 37.3899 328.325 37.6329 327.661 37.2924 326.955 37.0896 326.55 36.3538 326.751 35.6487 326.751 35.6458 326.754 35.6429 326.754 35.64 327.133 35.0033 327.946 34.7756 328.601 35.1216Z" fill="#FFFFFF" fill-rule="nonzero" fill-opacity="1" transform="matrix(1.05451 0 0 1 503.423 87)"/><path d="M333.72 33.696C334.443 33.9286 334.877 34.6683 334.724 35.4132 334.378 36.0602 333.574 36.3048 332.926 35.9591 332.91 35.9504 332.894 35.9413 332.878 35.9316 332.129 35.7116 331.685 34.9402 331.873 34.182 332.233 33.5421 333.043 33.3147 333.681 33.6736 333.694 33.6808 333.707 33.6882 333.72 33.696Z" fill="#FFFFFF" fill-rule="nonzero" fill-opacity="1" transform="matrix(1.05451 0 0 1 503.423 87)"/><path d="M342.922 17.7552C343.57 18.0792 344.023 18.6624 343.894 19.0512 343.764 19.44 343.148 19.5372 342.468 19.0512 341.788 18.5652 341.366 18.1116 341.464 17.7228 341.561 17.334 342.241 17.4312 342.922 17.7552Z" fill="#FFFFFF" fill-rule="nonzero" fill-opacity="1" transform="matrix(1.05451 0 0 1 503.423 87)"/><path d="M327.24 12.96C327.888 13.1868 328.212 13.6404 328.018 13.9644 327.823 14.2884 327.175 14.3532 326.527 13.9644 325.879 13.5756 325.555 13.284 325.75 12.96 326.203 12.6638 326.786 12.6638 327.24 12.96Z" fill="#FFFFFF" fill-rule="nonzero" fill-opacity="1" transform="matrix(1.05451 0 0 1 503.423 87)"/><path d="M330.48 14.1912C331.128 14.4828 331.452 14.9364 331.29 15.2928 331.128 15.6492 330.448 15.714 329.8 15.2928 329.152 14.8716 328.795 14.5476 328.99 14.1912 329.184 13.8348 329.67 13.9644 330.48 14.1912Z" fill="#FFFFFF" fill-rule="nonzero" fill-opacity="1" transform="matrix(1.05451 0 0 1 503.423 87)"/><path d="M335.696 18.5328C336.377 18.8568 336.798 19.4076 336.636 19.8288 336.474 20.25 335.761 20.3472 335.048 20.0556 334.336 19.764 333.914 19.1484 334.076 18.7272 334.238 18.306 334.984 18.2412 335.696 18.5328Z" fill="#FFFFFF" fill-rule="nonzero" fill-opacity="1" transform="matrix(1.05451 0 0 1 503.423 87)"/><path d="M333.428 15.4224C334.109 15.714 334.498 16.2324 334.336 16.6536 334.174 17.0748 333.461 17.1072 332.748 16.8156 332.035 16.524 331.646 15.9732 331.841 15.5844 332.035 15.1956 332.748 15.1308 333.428 15.4224Z" fill="#FFFFFF" fill-rule="nonzero" fill-opacity="1" transform="matrix(1.05451 0 0 1 503.423 87)"/><path d="M336.539 16.7508C337.252 17.0748 337.673 17.658 337.543 18.0792 337.414 18.5004 336.636 18.5976 335.891 18.2736 335.146 17.9496 334.724 17.334 334.886 16.9128 335.048 16.4916 335.794 16.4268 336.539 16.7508Z" fill="#FFFFFF" fill-rule="nonzero" fill-opacity="1" transform="matrix(1.05451 0 0 1 503.423 87)"/><path d="M338.742 19.8288C339.487 20.1852 339.941 20.8332 339.779 21.2868 339.617 21.7404 338.872 21.87 338.094 21.5136 337.316 21.1572 336.863 20.5092 337.057 20.0556 337.252 19.602 337.997 19.44 338.742 19.8288Z" fill="#FFFFFF" fill-rule="nonzero" fill-opacity="1" transform="matrix(1.05451 0 0 1 503.423 87)"/><path d="M338.191 32.4C338.904 32.6521 339.348 33.3652 339.26 34.1172 339.066 34.7328 338.288 34.9272 337.511 34.6032 336.775 34.3592 336.322 33.6195 336.442 32.8536 336.636 32.4 337.414 32.076 338.191 32.4Z" fill="#FFFFFF" fill-rule="nonzero" fill-opacity="1" transform="matrix(1.05451 0 0 1 503.423 87)"/><path d="M339.001 29.8404C339.759 30.1051 340.242 30.8538 340.168 31.6548 339.941 32.2704 339.131 32.4648 338.288 32.1084 337.508 31.8513 337.018 31.077 337.122 30.2616 337.349 29.646 338.159 29.484 339.001 29.8404Z" fill="#FFFFFF" fill-rule="nonzero" fill-opacity="1" transform="matrix(1.05451 0 0 1 503.423 87)"/><path d="M339.714 27.4104C340.621 27.8316 341.172 28.6416 340.978 29.322 340.783 30.0024 339.908 30.1644 338.969 29.7432 338.029 29.322 337.478 28.4796 337.705 27.8316 337.932 27.1836 338.807 27.0216 339.714 27.4104Z" fill="#FFFFFF" fill-rule="nonzero" fill-opacity="1" transform="matrix(1.05451 0 0 1 503.423 87)"/><path d="M340.459 25.1424C341.334 25.5636 341.852 26.3412 341.69 26.9568 341.528 27.5724 340.654 27.7344 339.746 27.3132 338.839 26.892 338.321 26.1144 338.515 25.4988 338.71 24.8832 339.584 24.7536 340.459 25.1424Z" fill="#FFFFFF" fill-rule="nonzero" fill-opacity="1" transform="matrix(1.05451 0 0 1 503.423 87)"/><path d="M341.075 23.166C341.82 23.5548 342.306 24.2028 342.176 24.7212 342.047 25.2396 341.269 25.3692 340.492 25.0128 339.714 24.6564 339.228 23.9436 339.39 23.4252 339.552 22.9068 340.2 22.68 341.075 23.166Z" fill="#FFFFFF" fill-rule="nonzero" fill-opacity="1" transform="matrix(1.05451 0 0 1 503.423 87)"/><path d="M341.788 21.1896C342.598 21.5784 343.116 22.2912 342.954 22.842 342.792 23.3928 342.014 23.49 341.172 23.0688 340.33 22.6476 339.811 21.9348 339.973 21.4164 340.135 20.898 340.945 20.8008 341.788 21.1896Z" fill="#FFFFFF" fill-rule="nonzero" fill-opacity="1" transform="matrix(1.05451 0 0 1 503.423 87)"/><path d="M342.371 19.44C343.181 19.8288 343.667 20.5092 343.537 20.9952 343.408 21.4812 342.63 21.6108 341.82 21.222 341.01 20.8332 340.492 20.1204 340.654 19.602 340.816 19.0836 341.593 18.9864 342.371 19.44Z" fill="#FFFFFF" fill-rule="nonzero" fill-opacity="1" transform="matrix(1.05451 0 0 1 503.423 87)"/><path d="M348.754 18.954C349.272 19.2456 349.661 19.6992 349.596 20.0232 349.531 20.3472 349.045 20.3796 348.494 20.0232 347.944 19.6668 347.62 19.278 347.684 18.954 347.749 18.63 348.235 18.6948 348.754 18.954Z" fill="#FFFFFF" fill-rule="nonzero" fill-opacity="1" transform="matrix(1.05451 0 0 1 503.423 87)"/><path d="M349.175 17.496C349.661 17.7552 349.985 18.1764 349.92 18.468 349.855 18.7596 349.434 18.7596 348.948 18.468 348.462 18.1764 348.106 17.7876 348.17 17.5284 348.235 17.2692 348.689 17.2368 349.175 17.496Z" fill="#FFFFFF" fill-rule="nonzero" fill-opacity="1" transform="matrix(1.05451 0 0 1 503.423 87)"/><path d="M349.596 16.2C350.017 16.4268 350.309 16.7832 350.244 17.0424 350.179 17.3016 349.823 17.2692 349.402 17.0424 348.98 16.8156 348.689 16.4592 348.721 16.2 348.754 15.9408 349.142 15.9084 349.596 16.2Z" fill="#FFFFFF" fill-rule="nonzero" fill-opacity="1" transform="matrix(1.05451 0 0 1 503.423 87)"/><path d="M349.92 14.8068C350.276 15.0336 350.536 15.3252 350.503 15.552 350.471 15.7788 350.114 15.7788 349.758 15.552 349.402 15.3252 349.078 15.0336 349.142 14.8068 349.207 14.58 349.596 14.6124 349.92 14.8068Z" fill="#FFFFFF" fill-rule="nonzero" fill-opacity="1" transform="matrix(1.05451 0 0 1 503.423 87)"/><path d="M350.341 13.6404C350.698 13.8348 350.957 14.094 350.924 14.3208 350.892 14.5476 350.568 14.5152 350.212 14.3208 349.855 14.1264 349.596 13.8672 349.628 13.6404 349.661 13.4136 349.92 13.446 350.341 13.6404Z" fill="#FFFFFF" fill-rule="nonzero" fill-opacity="1" transform="matrix(1.05451 0 0 1 503.423 87)"/><path d="M350.665 12.5064C350.989 12.7008 351.216 12.9276 351.184 13.0896 351.151 13.2516 350.86 13.0896 350.568 13.0896 350.276 13.0896 350.017 12.6684 350.05 12.5064 350.082 12.3444 350.374 12.3444 350.665 12.5064Z" fill="#FFFFFF" fill-rule="nonzero" fill-opacity="1" transform="matrix(1.05451 0 0 1 503.423 87)"/><path d="M350.924 11.5668C351.216 11.5668 351.443 11.9232 351.41 12.0852 351.378 12.2472 351.119 12.0852 350.827 12.0852 350.536 12.0852 350.341 11.7288 350.374 11.5668 350.406 11.4048 350.633 11.4048 350.924 11.5668Z" fill="#FFFFFF" fill-rule="nonzero" fill-opacity="1" transform="matrix(1.05451 0 0 1 503.423 87)"/><path d="M351.248 10.5948C351.508 10.5948 351.67 10.9188 351.67 11.0484 351.67 11.178 351.41 11.0484 351.151 11.0484 350.892 11.0484 350.73 10.7244 350.73 10.5948 350.73 10.4652 350.989 10.4328 351.248 10.5948Z" fill="#FFFFFF" fill-rule="nonzero" fill-opacity="1" transform="matrix(1.05451 0 0 1 503.423 87)"/><path d="M344.574 37.5192C344.052 37.2895 343.728 36.7594 343.764 36.1908 343.764 35.7372 344.412 35.6076 344.963 35.8344 345.484 36.0495 345.821 36.5653 345.805 37.1304 345.676 37.6164 345.157 37.7784 344.574 37.5192Z" fill="#FFFFFF" fill-rule="nonzero" fill-opacity="1" transform="matrix(1.05451 0 0 1 503.423 87)"/><path d="M343.991 40.5C343.472 40.2878 343.158 39.7606 343.213 39.204 343.213 38.7504 343.829 38.5884 344.38 38.8476 344.879 39.064 345.19 39.5685 345.157 40.1112 345.028 40.5972 344.542 40.7592 343.991 40.5Z" fill="#FFFFFF" fill-rule="nonzero" fill-opacity="1" transform="matrix(1.05451 0 0 1 503.423 87)"/><path d="M343.44 43.6752C342.912 43.4802 342.598 42.9345 342.695 42.3792 342.695 41.8932 343.31 41.7312 343.829 41.958 344.347 42.1702 344.661 42.6974 344.606 43.254 344.48 43.6642 344.043 43.8933 343.634 43.7659 343.566 43.7445 343.498 43.7141 343.44 43.6752Z" fill="#FFFFFF" fill-rule="nonzero" fill-opacity="1" transform="matrix(1.05451 0 0 1 503.423 87)"/><path d="M342.857 47.1096C342.371 46.9065 342.089 46.3968 342.176 45.8784 342.176 45.3924 342.76 45.2304 343.278 45.4248 343.751 45.6565 344.026 46.1648 343.958 46.6884 343.839 47.0824 343.424 47.3056 343.029 47.187 342.97 47.1686 342.912 47.1427 342.857 47.1096Z" fill="#FFFFFF" fill-rule="nonzero" fill-opacity="1" transform="matrix(1.05451 0 0 1 503.423 87)"/><path d="M342.176 50.868C341.703 50.6538 341.438 50.1471 341.528 49.6368 341.609 49.27 341.972 49.039 342.342 49.1207 342.419 49.1385 342.497 49.1706 342.565 49.2156 343.041 49.4081 343.314 49.9112 343.213 50.4144 343.119 50.7967 342.734 51.0303 342.351 50.9364 342.29 50.9211 342.231 50.8985 342.176 50.868Z" fill="#FFFFFF" fill-rule="nonzero" fill-opacity="1" transform="matrix(1.05451 0 0 1 503.423 87)"/><path d="M341.464 55.08C341.01 54.8875 340.76 54.3928 340.88 53.9136 340.948 53.5439 341.305 53.2996 341.674 53.3677 341.736 53.3793 341.794 53.3994 341.852 53.4276 342.296 53.6301 342.539 54.1164 342.436 54.594 342.342 54.9763 341.956 55.2102 341.574 55.1166 341.535 55.1075 341.499 55.0952 341.464 55.08Z" fill="#FFFFFF" fill-rule="nonzero" fill-opacity="1" transform="matrix(1.05451 0 0 1 503.423 87)"/><path d="M339.487 18.144C340.2 18.468 340.621 19.0512 340.459 19.4724 340.297 19.8936 339.649 19.9584 338.936 19.4724 338.224 18.9864 337.802 18.5652 337.964 18.144 338.126 17.7228 338.807 17.82 339.487 18.144Z" fill="#FFFFFF" fill-rule="nonzero" fill-opacity="1" transform="matrix(1.05451 0 0 1 503.423 87)"/><path d="M337.9 21.87C338.548 22.1616 338.936 22.7124 338.774 23.1012 338.612 23.49 338.029 23.6196 337.381 23.328 336.733 23.0364 336.344 22.4856 336.506 22.0644 336.668 21.6432 337.284 21.5784 337.9 21.87Z" fill="#FFFFFF" fill-rule="nonzero" fill-opacity="1" transform="matrix(1.05451 0 0 1 503.423 87)"/><path d="M337.219 23.8464C337.932 24.2028 338.353 24.8184 338.191 25.3044 338.029 25.7904 337.316 25.92 336.571 25.596 335.826 25.272 335.405 24.624 335.567 24.138 335.729 23.652 336.474 23.5224 337.219 23.8464Z" fill="#FFFFFF" fill-rule="nonzero" fill-opacity="1" transform="matrix(1.05451 0 0 1 503.423 87)"/><path d="M334.562 30.942C335.275 31.266 335.696 31.914 335.502 32.4648 335.308 33.0156 334.595 33.21 333.85 32.886 333.185 32.6832 332.78 32.013 332.91 31.3308 333.27 30.7815 333.995 30.6105 334.562 30.942Z" fill="#FFFFFF" fill-rule="nonzero" fill-opacity="1" transform="matrix(1.05451 0 0 1 503.423 87)"/><path d="M328.147 11.2752C328.828 11.5668 329.184 12.0204 328.99 12.3768 328.795 12.7332 328.082 12.7656 327.37 12.3768 326.657 11.988 326.333 11.6316 326.56 11.2752 326.786 10.9188 327.499 11.016 328.147 11.2752Z" fill="#FFFFFF" fill-rule="nonzero" fill-opacity="1" transform="matrix(1.05451 0 0 1 503.423 87)"/><path d="M327.24 38.4912C327.895 38.6746 328.277 39.354 328.092 40.0088 328.089 40.0215 328.086 40.0341 328.082 40.0464 327.752 40.6633 326.994 40.9073 326.365 40.5972 325.714 40.4028 325.341 39.7172 325.536 39.0657 325.542 39.0469 325.549 39.0281 325.555 39.0096 325.866 38.4047 326.608 38.1662 327.214 38.4769 327.221 38.4815 327.23 38.4863 327.24 38.4912Z" fill="#FFFFFF" fill-rule="nonzero" fill-opacity="1" transform="matrix(1.05451 0 0 1 503.423 87)"/><path d="M322.283 40.4676C322.904 40.6371 323.271 41.2782 323.102 41.8997 323.09 41.9415 323.076 41.9826 323.06 42.0228 322.728 42.6727 321.941 42.9446 321.278 42.6384 320.655 42.4758 320.282 41.8384 320.444 41.2151 320.459 41.159 320.478 41.1043 320.501 41.0508 320.865 40.4381 321.626 40.189 322.283 40.4676Z" fill="#FFFFFF" fill-rule="nonzero" fill-opacity="1" transform="matrix(1.05451 0 0 1 503.423 87)"/><path d="M332.456 36.774C333.143 37.0057 333.535 37.7236 333.364 38.4264 333.075 39.042 332.343 39.307 331.727 39.018 331.698 39.0054 331.672 38.9918 331.646 38.9772 330.934 38.7582 330.519 38.0152 330.707 37.2924 331.05 36.6687 331.831 36.4374 332.456 36.774Z" fill="#FFFFFF" fill-rule="nonzero" fill-opacity="1" transform="matrix(1.05451 0 0 1 503.423 87)"/><path d="M337.252 35.4132C337.896 35.639 338.292 36.2916 338.191 36.9684 337.997 37.5516 337.316 37.7784 336.571 37.4544 335.917 37.2253 335.528 36.5482 335.664 35.8668 335.858 35.2836 336.539 35.0892 337.252 35.4132Z" fill="#FFFFFF" fill-rule="nonzero" fill-opacity="1" transform="matrix(1.05451 0 0 1 503.423 87)"/><path d="M341.658 34.0524C342.335 34.31 342.756 34.9842 342.695 35.7048 342.695 36.3204 341.82 36.5148 341.075 36.1908 340.375 35.9271 339.944 35.2169 340.038 34.4736 340.2 33.9228 340.913 33.7284 341.658 34.0524Z" fill="#FFFFFF" fill-rule="nonzero" fill-opacity="1" transform="matrix(1.05451 0 0 1 503.423 87)"/><path d="M335.47 28.4472C336.066 28.6322 336.435 29.2238 336.344 29.8404 336.15 30.3264 335.502 30.456 334.822 30.1644 334.141 29.8728 333.752 29.2572 333.947 28.7712 334.141 28.2852 334.789 28.1556 335.47 28.4472Z" fill="#FFFFFF" fill-rule="nonzero" fill-opacity="1" transform="matrix(1.05451 0 0 1 503.423 87)"/><path d="M343.44 16.2C344.023 16.524 344.412 17.01 344.315 17.334 344.218 17.658 343.634 17.7228 343.051 17.334 342.468 16.9452 342.079 16.524 342.176 16.2 342.274 15.876 342.824 15.9084 343.44 16.2Z" fill="#FFFFFF" fill-rule="nonzero" fill-opacity="1" transform="matrix(1.05451 0 0 1 503.423 87)"/><path d="M331.29 12.7332C331.808 12.96 332.1 13.3488 331.938 13.6404 331.776 13.932 331.258 13.9644 330.707 13.6404 330.156 13.3164 329.864 13.0248 330.026 12.7332 330.188 12.4416 330.739 12.5064 331.29 12.7332Z" fill="#FFFFFF" fill-rule="nonzero" fill-opacity="1" transform="matrix(1.05451 0 0 1 503.423 87)"/><path d="M333.947 22.68C334.53 22.9392 334.854 23.3928 334.692 23.7816 334.53 24.1704 333.979 24.2352 333.364 24.0084 332.748 23.7816 332.456 23.2632 332.618 22.8744 332.78 22.4856 333.364 22.356 333.947 22.68Z" fill="#FFFFFF" fill-rule="nonzero" fill-opacity="1" transform="matrix(1.05451 0 0 1 503.423 87)"/><path d="M329.8 32.1732C330.457 32.3623 330.853 33.0286 330.707 33.696 330.331 34.2818 329.57 34.4798 328.957 34.1496 328.29 33.9746 327.885 33.2968 328.05 32.6268 328.426 32.041 329.187 31.8432 329.8 32.1732Z" fill="#FFFFFF" fill-rule="nonzero" fill-opacity="1" transform="matrix(1.05451 0 0 1 503.423 87)"/><path d="M336.28 26.2116C336.928 26.5356 337.316 27.0864 337.154 27.54 336.992 27.9936 336.377 28.1232 335.696 27.8316 335.016 27.54 334.66 26.9568 334.822 26.5032 334.984 26.0496 335.632 25.92 336.28 26.2116Z" fill="#FFFFFF" fill-rule="nonzero" fill-opacity="1" transform="matrix(1.05451 0 0 1 503.423 87)"/><path d="M329.54 23.2956C330.221 23.5872 330.577 24.138 330.415 24.5592 330.253 24.9804 329.508 25.1424 328.795 24.8508 328.082 24.5592 327.758 24.0408 327.953 23.5872 328.342 23.1206 329.009 22.9981 329.54 23.2956Z" fill="#FFFFFF" fill-rule="nonzero" fill-opacity="1" transform="matrix(1.05451 0 0 1 503.423 87)"/><path d="M317.974 42.606C318.392 42.7045 318.65 43.1234 318.552 43.5414 318.538 43.5987 318.518 43.6548 318.492 43.7076 318.224 44.169 317.658 44.3624 317.164 44.1612 316.762 44.0734 316.507 43.6765 316.594 43.2744 316.611 43.1989 316.639 43.1263 316.678 43.0596 316.951 42.6248 317.489 42.4366 317.974 42.606Z" fill="#FFFFFF" fill-rule="nonzero" fill-opacity="1" transform="matrix(1.05451 0 0 1 503.423 87)"/><path d="M332.489 17.2368C333.104 17.496 333.461 17.982 333.299 18.3384 333.137 18.6948 332.489 18.792 331.873 18.5328 331.258 18.2736 330.901 17.7876 331.063 17.3988 331.225 17.01 331.873 16.9776 332.489 17.2368Z" fill="#FFFFFF" fill-rule="nonzero" fill-opacity="1" transform="matrix(1.05451 0 0 1 503.423 87)"/><path d="M346.129 17.6256C346.648 17.9172 347.004 18.3384 346.939 18.6624 346.874 18.9864 346.388 19.0188 345.838 18.6624 345.287 18.306 344.963 17.9172 345.06 17.6256 345.157 17.334 345.611 17.3664 346.129 17.6256Z" fill="#FFFFFF" fill-rule="nonzero" fill-opacity="1" transform="matrix(1.05451 0 0 1 503.423 87)"/><path d="M338.483 12.4416C338.872 12.6036 339.131 12.8628 339.098 13.0896 339.066 13.3164 338.677 13.3488 338.256 13.0896 337.835 12.8304 337.608 12.6684 337.673 12.4416 337.738 12.2148 338.094 12.2796 338.483 12.4416Z" fill="#FFFFFF" fill-rule="nonzero" fill-opacity="1" transform="matrix(1.05451 0 0 1 503.423 87)"/><path d="M334.174 13.932C334.66 14.1588 334.919 14.4828 334.822 14.7744 334.724 15.066 334.206 15.066 333.752 14.7744 333.299 14.4828 333.007 14.2236 333.104 13.9644 333.202 13.7052 333.72 13.7376 334.174 13.932Z" fill="#FFFFFF" fill-rule="nonzero" fill-opacity="1" transform="matrix(1.05451 0 0 1 503.423 87)"/><path d="M332.91 24.8508C333.493 25.11 333.85 25.6284 333.688 26.0172 333.526 26.406 332.91 26.5356 332.294 26.3088 331.679 26.082 331.355 25.5312 331.549 25.11 331.744 24.6888 332.327 24.624 332.91 24.8508Z" fill="#FFFFFF" fill-rule="nonzero" fill-opacity="1" transform="matrix(1.05451 0 0 1 503.423 87)"/><path d="M330.48 21.3192C330.998 21.546 331.29 21.9672 331.128 22.2912 330.966 22.6152 330.48 22.68 330.026 22.68 329.573 22.68 329.184 21.9996 329.346 21.6756 329.605 21.3219 330.065 21.1775 330.48 21.3192Z" fill="#FFFFFF" fill-rule="nonzero" fill-opacity="1" transform="matrix(1.05451 0 0 1 503.423 87)"/><path d="M326.009 22.0644C326.657 22.3236 326.981 22.7772 326.786 23.1984 326.398 23.6211 325.772 23.7276 325.264 23.4576 324.648 23.2308 324.324 22.7448 324.518 22.356 324.713 21.9672 325.393 21.8376 326.009 22.0644Z" fill="#FFFFFF" fill-rule="nonzero" fill-opacity="1" transform="matrix(1.05451 0 0 1 503.423 87)"/><path d="M324 11.988C324.518 11.988 324.778 12.474 324.616 12.7332 324.249 12.9617 323.784 12.9617 323.417 12.7332 322.898 12.5388 322.639 12.2148 322.801 11.9556 323.178 11.7514 323.635 11.7637 324 11.988Z" fill="#FFFFFF" fill-rule="nonzero" fill-opacity="1" transform="matrix(1.05451 0 0 1 503.423 87)"/><path d="M339.163 11.0808C339.584 11.2428 339.876 11.5344 339.844 11.7612 339.811 11.988 339.39 12.0528 338.936 11.7612 338.483 11.4696 338.224 11.3076 338.288 11.0808 338.353 10.854 338.742 10.9188 339.163 11.0808Z" fill="#FFFFFF" fill-rule="nonzero" fill-opacity="1" transform="matrix(1.05451 0 0 1 503.423 87)"/><path d="M340.718 14.9364C341.237 15.1956 341.561 15.6168 341.464 15.9408 341.366 16.2648 340.848 16.2648 340.33 15.9408 339.811 15.6168 339.455 15.2604 339.552 14.9364 339.649 14.6124 340.2 14.7096 340.718 14.9364Z" fill="#FFFFFF" fill-rule="nonzero" fill-opacity="1" transform="matrix(1.05451 0 0 1 503.423 87)"/><path d="M341.302 13.4784C341.788 13.7376 342.079 14.094 342.014 14.3856 341.95 14.6772 341.496 14.6448 341.01 14.3856 340.524 14.1264 340.232 13.77 340.33 13.5108 340.427 13.2516 340.848 13.2516 341.302 13.4784Z" fill="#FFFFFF" fill-rule="nonzero" fill-opacity="1" transform="matrix(1.05451 0 0 1 503.423 87)"/><path d="M334.724 20.7036C335.243 20.9304 335.534 21.3516 335.405 21.6756 335.078 21.9538 334.598 21.9538 334.271 21.6756 333.752 21.4488 333.461 21.0276 333.59 20.7036 333.72 20.3796 334.238 20.4768 334.724 20.7036Z" fill="#FFFFFF" fill-rule="nonzero" fill-opacity="1" transform="matrix(1.05451 0 0 1 503.423 87)"/><path d="M337.219 15.3576C337.64 15.552 337.867 15.876 337.77 16.1028 337.673 16.3296 337.284 16.362 336.863 16.1028 336.442 15.8436 336.182 15.5844 336.28 15.3576 336.377 15.1308 336.96 15.1632 337.219 15.3576Z" fill="#FFFFFF" fill-rule="nonzero" fill-opacity="1" transform="matrix(1.05451 0 0 1 503.423 87)"/><path d="M330.869 29.6784C331.326 29.8185 331.604 30.2784 331.517 30.7476 331.245 31.1303 330.736 31.2547 330.318 31.0392 329.8 30.8124 329.508 30.3588 329.67 29.97 329.832 29.5812 330.48 29.484 330.869 29.6784Z" fill="#FFFFFF" fill-rule="nonzero" fill-opacity="1" transform="matrix(1.05451 0 0 1 503.423 87)"/><path d="M340.006 16.7184C340.362 16.7184 340.589 17.172 340.524 17.3988 340.459 17.6256 340.07 17.658 339.714 17.3988 339.358 17.1396 339.131 16.9128 339.196 16.686 339.26 16.4592 339.617 16.5564 340.006 16.7184Z" fill="#FFFFFF" fill-rule="nonzero" fill-opacity="1" transform="matrix(1.05451 0 0 1 503.423 87)"/><path d="M343.796 14.8068C344.218 15.0336 344.477 15.39 344.444 15.6168 344.412 15.8436 343.991 15.876 343.57 15.6168 343.148 15.3576 342.889 15.0336 342.954 14.8068 343.019 14.58 343.44 14.6124 343.796 14.8068Z" fill="#FFFFFF" fill-rule="nonzero" fill-opacity="1" transform="matrix(1.05451 0 0 1 503.423 87)"/><path d="M329.216 16.2C329.735 16.4268 330.026 16.7832 329.864 17.0748 329.702 17.3664 329.184 17.4312 328.666 17.0748 328.147 16.7184 327.856 16.4916 328.018 16.2 328.18 15.9084 328.698 15.8436 329.216 16.2Z" fill="#FFFFFF" fill-rule="nonzero" fill-opacity="1" transform="matrix(1.05451 0 0 1 503.423 87)"/><path d="M318.038 7.938C318.46 7.938 318.654 8.3268 318.492 8.5212 318.165 8.68323 317.782 8.68323 317.455 8.5212 317.034 8.5212 316.84 8.1324 317.002 7.9704 317.318 7.78144 317.71 7.7692 318.038 7.938Z" fill="#FFFFFF" fill-rule="nonzero" fill-opacity="1" transform="matrix(1.05451 0 0 1 503.423 87)"/><path d="M322.412 20.8008C322.996 21.0276 323.287 21.4488 323.093 21.8052 322.719 22.1825 322.15 22.2861 321.667 22.0644 321.084 21.87 320.76 21.4488 320.987 21.0924 321.353 20.7039 321.923 20.5872 322.412 20.8008Z" fill="#FFFFFF" fill-rule="nonzero" fill-opacity="1" transform="matrix(1.05451 0 0 1 503.423 87)"/><path d="M316.742 45.846C317.134 45.9737 317.348 46.3942 317.22 46.7853 317.205 46.8303 317.187 46.8737 317.164 46.9152 316.913 47.34 316.398 47.5295 315.932 47.3688 315.548 47.2839 315.305 46.9035 315.39 46.5189 315.407 46.4415 315.437 46.3673 315.479 46.2996 315.741 45.87 316.267 45.6811 316.742 45.846Z" fill="#FFFFFF" fill-rule="nonzero" fill-opacity="1" transform="matrix(1.05451 0 0 1 503.423 87)"/><path d="M313.081 47.7576C313.408 47.8525 313.595 48.194 313.5 48.5206 313.486 48.5712 313.464 48.6198 313.438 48.6648 313.214 49.0452 312.749 49.2091 312.336 49.0536 312.006 48.9742 311.802 48.6418 311.881 48.3113 311.895 48.2533 311.917 48.1979 311.947 48.1464 312.198 47.7806 312.659 47.6228 313.081 47.7576Z" fill="#FFFFFF" fill-rule="nonzero" fill-opacity="1" transform="matrix(1.05451 0 0 1 503.423 87)"/><path d="M325.976 41.6988C326.401 41.9632 326.534 42.5224 326.268 42.9481 326.006 43.3736 325.445 43.5045 325.021 43.2404 324.651 43.0123 324.496 42.5574 324.648 42.1524 324.917 41.691 325.484 41.4976 325.976 41.6988Z" fill="#FFFFFF" fill-rule="nonzero" fill-opacity="1" transform="matrix(1.05451 0 0 1 503.423 87)"/><path d="M320.987 43.8372C321.478 44.005 321.74 44.5393 321.572 45.0302 321.571 45.0321 321.571 45.0341 321.57 45.036 321.351 45.5262 320.777 45.7462 320.286 45.5275 320.282 45.5259 320.278 45.5239 320.274 45.522 319.776 45.3759 319.491 44.8539 319.637 44.3559 319.643 44.3339 319.65 44.3122 319.658 44.2908 319.905 43.8038 320.494 43.6026 320.987 43.8372Z" fill="#FFFFFF" fill-rule="nonzero" fill-opacity="1" transform="matrix(1.05451 0 0 1 503.423 87)"/><path d="M327.24 20.088C327.629 20.088 327.823 20.5416 327.726 20.8008 327.629 21.06 327.175 21.0924 326.754 20.8008 326.333 20.5092 326.171 20.3148 326.3 20.088 326.43 19.8612 326.754 19.9584 327.24 20.088Z" fill="#FFFFFF" fill-rule="nonzero" fill-opacity="1" transform="matrix(1.05451 0 0 1 503.423 87)"/><path d="M337.414 9.0396C337.738 9.0396 337.964 9.396 337.9 9.5904 337.835 9.7848 337.543 9.7848 337.187 9.5904 336.83 9.396 336.636 9.234 336.701 9.072 336.766 8.91 336.96 8.91 337.414 9.0396Z" fill="#FFFFFF" fill-rule="nonzero" fill-opacity="1" transform="matrix(1.05451 0 0 1 503.423 87)"/><path d="M331.225 40.0464C331.659 40.186 331.902 40.6455 331.776 41.0832 331.608 41.4785 331.151 41.6628 330.755 41.495 330.739 41.4879 330.723 41.4804 330.707 41.472 330.279 41.3061 330.043 40.8473 330.156 40.4028 330.357 40.015 330.83 39.8572 331.225 40.0464Z" fill="#FFFFFF" fill-rule="nonzero" fill-opacity="1" transform="matrix(1.05451 0 0 1 503.423 87)"/><path d="M336.15 38.394C336.552 38.532 336.788 38.9493 336.701 39.366 336.555 39.7127 336.156 39.876 335.81 39.7308 335.784 39.7192 335.755 39.7056 335.729 39.69 335.321 39.5387 335.087 39.1107 335.178 38.6856 335.337 38.3454 335.742 38.1983 336.082 38.3577 336.105 38.3684 336.127 38.3807 336.15 38.394Z" fill="#FFFFFF" fill-rule="nonzero" fill-opacity="1" transform="matrix(1.05451 0 0 1 503.423 87)"/><path d="M340.718 37.3896C341.097 37.5218 341.34 37.8963 341.302 38.2968 341.302 38.6532 340.816 38.7828 340.394 38.5884 340.015 38.4416 339.785 38.0522 339.844 37.6488 339.964 37.3501 340.304 37.2062 340.602 37.3271 340.644 37.3433 340.683 37.3643 340.718 37.3896Z" fill="#FFFFFF" fill-rule="nonzero" fill-opacity="1" transform="matrix(1.05451 0 0 1 503.423 87)"/><path d="M318.492 19.7964C318.881 19.7964 319.075 20.1852 318.913 20.412 318.656 20.6637 318.275 20.74 317.941 20.6064 317.552 20.6064 317.358 20.2176 317.488 19.9908 317.755 19.7334 318.148 19.6573 318.492 19.7964Z" fill="#FFFFFF" fill-rule="nonzero" fill-opacity="1" transform="matrix(1.05451 0 0 1 503.423 87)"/><path d="M321.052 22.68C321.538 22.68 321.764 23.1984 321.602 23.49 321.3 23.803 320.834 23.8936 320.436 23.7168 319.95 23.7168 319.723 23.1984 319.885 22.9068 320.183 22.5846 320.655 22.4929 321.052 22.68Z" fill="#FFFFFF" fill-rule="nonzero" fill-opacity="1" transform="matrix(1.05451 0 0 1 503.423 87)"/><path d="M324.745 24.3C325.166 24.3 325.393 24.786 325.264 25.0452 325.134 25.3044 324.68 25.4016 324.227 25.272 323.773 25.1424 323.611 24.786 323.741 24.4944 323.994 24.2104 324.405 24.1308 324.745 24.3Z" fill="#FFFFFF" fill-rule="nonzero" fill-opacity="1" transform="matrix(1.05451 0 0 1 503.423 87)"/><path d="M328.406 25.92C328.795 25.92 328.99 26.3736 328.86 26.6328 328.73 26.892 328.374 26.9568 327.985 26.8272 327.596 26.6976 327.434 26.3412 327.532 26.1144 327.742 25.8515 328.105 25.7705 328.406 25.92Z" fill="#FFFFFF" fill-rule="nonzero" fill-opacity="1" transform="matrix(1.05451 0 0 1 503.423 87)"/><path d="M331.906 27.216C332.262 27.216 332.456 27.702 332.359 27.9612 332.116 28.1686 331.76 28.1686 331.517 27.9612 331.16 27.9612 330.966 27.5076 331.063 27.2484 331.16 26.9892 331.517 27.0864 331.906 27.216Z" fill="#FFFFFF" fill-rule="nonzero" fill-opacity="1" transform="matrix(1.05451 0 0 1 503.423 87)"/><path d="M339.779 9.9792C340.103 9.9792 340.33 10.3032 340.297 10.4976 340.265 10.692 339.973 10.4976 339.617 10.4976 339.26 10.4976 339.066 10.1736 339.131 9.9792 339.196 9.7848 339.455 9.72 339.779 9.9792Z" fill="#FFFFFF" fill-rule="nonzero" fill-opacity="1" transform="matrix(1.05451 0 0 1 503.423 87)"/><path d="M338.062 7.9704C338.353 7.9704 338.548 8.2944 338.515 8.4564 338.483 8.6184 338.224 8.6184 337.932 8.4564 337.64 8.2944 337.414 8.1324 337.478 7.9704 337.543 7.8084 337.77 7.8408 338.062 7.9704Z" fill="#FFFFFF" fill-rule="nonzero" fill-opacity="1" transform="matrix(1.05451 0 0 1 503.423 87)"/><path d="M336.247 6.2208C336.506 6.2208 336.701 6.5124 336.636 6.642 336.571 6.7716 336.377 6.804 336.118 6.642 335.858 6.48 335.664 6.3504 335.696 6.2208 335.729 6.0912 335.988 6.1236 336.247 6.2208Z" fill="#FFFFFF" fill-rule="nonzero" fill-opacity="1" transform="matrix(1.05451 0 0 1 503.423 87)"/><path d="M341.788 12.2796C342.112 12.474 342.338 12.7332 342.306 12.9276 342.274 13.122 341.917 13.122 341.561 12.9276 341.204 12.7332 340.978 12.474 341.042 12.2796 341.107 12.0852 341.431 12.1176 341.788 12.2796Z" fill="#FFFFFF" fill-rule="nonzero" fill-opacity="1" transform="matrix(1.05451 0 0 1 503.423 87)"/><path d="M317.196 21.546C317.585 21.546 317.779 21.9348 317.617 22.194 317.35 22.4514 316.957 22.5275 316.613 22.3884 316.224 22.3884 316.03 21.9996 316.192 21.7404 316.459 21.483 316.852 21.4069 317.196 21.546Z" fill="#FFFFFF" fill-rule="nonzero" fill-opacity="1" transform="matrix(1.05451 0 0 1 503.423 87)"/><path d="M313.6 20.5416C313.956 20.5416 314.15 20.8656 313.988 21.0924 313.731 21.3413 313.358 21.4284 313.016 21.3192 312.628 21.3192 312.466 20.9628 312.628 20.736 312.897 20.5105 313.264 20.4373 313.6 20.5416Z" fill="#FFFFFF" fill-rule="nonzero" fill-opacity="1" transform="matrix(1.05451 0 0 1 503.423 87)"/><path d="M344.185 19.2132C344.185 19.6344 344.412 20.1852 345.06 20.6064 344.315 20.3472 343.699 20.6064 343.57 20.9628 343.44 21.3192 343.57 21.9024 344.25 22.356 343.634 22.356 343.148 22.356 343.019 22.8096 342.889 23.2632 343.278 24.0084 343.958 24.462 343.181 24.2352 342.533 24.462 342.371 24.948 342.293 25.5173 342.546 26.0811 343.019 26.406 342.504 26.2809 341.972 26.5394 341.755 27.0216 341.677 27.6845 341.979 28.3347 342.533 28.7064 341.82 28.7064 341.237 28.7064 341.075 29.3544 341.007 30.3167 341.59 31.2061 342.5 31.5252 343.116 31.9003 343.9 31.8347 344.444 31.3632 344.619 32.1472 345.164 32.7985 345.902 33.1128 346.421 33.4206 347.069 33.4206 347.587 33.1128 347.879 33.7465 348.368 34.2695 348.98 34.6032 349.499 34.9181 350.147 34.9181 350.665 34.6032 350.915 35.2638 351.417 35.7991 352.058 36.0936 352.544 36.44 353.192 36.44 353.678 36.0936 353.951 36.7669 354.456 37.3193 355.104 37.6488 356.044 38.1348 356.821 37.908 356.918 37.098 356.889 36.4001 356.559 35.7495 356.011 35.316 356.627 35.316 357.08 35.154 357.113 34.6032 357.103 33.9918 356.831 33.4138 356.368 33.0156 356.886 33.0156 357.275 33.0156 357.307 32.3676 357.242 31.6328 356.834 30.972 356.206 30.5856 356.918 30.8448 357.437 30.5856 357.502 30.0996 357.463 29.5007 357.152 28.9523 356.659 28.6092 357.21 28.6092 357.631 28.6092 357.664 28.0908 357.583 27.4127 357.187 26.8125 356.594 26.4708 357.21 26.6652 357.631 26.4708 357.664 26.1144 357.56 25.4156 357.11 24.8173 356.465 24.5268 355.817 24.2028 355.298 24.2352 355.104 24.5268 354.923 23.92 354.485 23.423 353.905 23.166 353.322 22.8744 352.804 22.842 352.577 23.166 352.347 22.5402 351.883 22.0287 351.281 21.7404 350.568 21.384 349.952 21.384 349.726 21.7404 349.531 21.1664 349.11 20.6976 348.559 20.4444 347.782 20.088 347.134 20.1204 347.004 20.4444 347.004 19.9584 346.583 19.3428 345.805 18.954 345.028 18.5652 344.315 18.7596 344.185 19.2132ZM353.905 33.5664C354.245 33.7303 354.466 34.0654 354.488 34.4412 354.488 34.7328 354.132 34.83 353.776 34.6356 353.419 34.4866 353.179 34.1464 353.16 33.7608 353.322 33.4692 353.614 33.4044 354.002 33.5664ZM350.957 32.1408C351.313 32.3352 351.54 32.6268 351.475 32.9184 351.41 33.21 351.151 33.2424 350.827 33.0804 350.5 32.9599 350.283 32.6508 350.276 32.3028 350.438 32.076 350.73 31.9788 351.054 32.1408ZM348.008 30.6828C348.313 30.8089 348.514 31.0998 348.527 31.428 348.527 31.6872 348.17 31.752 347.814 31.59 347.458 31.428 347.263 31.104 347.328 30.8448 347.393 30.5856 347.782 30.5208 348.106 30.6828ZM345.352 29.9052C345.352 30.1644 344.93 30.2616 344.542 29.9052 344.153 29.5488 343.894 29.3544 343.958 29.0628 344.023 28.7712 344.412 28.7064 344.801 29.0628 345.19 29.4192 345.514 29.6136 345.449 29.9052ZM354.262 31.4928C354.56 31.6251 354.761 31.9123 354.78 32.238 354.78 32.4972 354.488 32.562 354.164 32.4 353.863 32.2657 353.652 31.9828 353.614 31.6548 353.776 31.3956 354.035 31.3308 354.359 31.4928ZM345.384 27.0216C345.708 27.1836 345.935 27.4752 345.87 27.7344 345.805 27.9936 345.514 28.026 345.157 27.7344 344.801 27.4428 344.606 27.2484 344.671 27.0216 344.736 26.7948 345.06 26.8596 345.384 27.0216ZM354.618 29.3544C354.942 29.3544 355.169 29.808 355.136 30.0348 355.104 30.2616 354.845 30.3264 354.521 30.0348 354.223 29.9202 354.019 29.641 354.002 29.322 354.035 29.16 354.294 29.16 354.618 29.3544ZM345.902 24.948C346.188 25.054 346.382 25.3235 346.388 25.6284 346.388 25.8552 346.032 25.8876 345.708 25.6284 345.384 25.3692 345.157 25.1748 345.222 24.948 345.287 24.7212 345.578 24.786 345.902 24.948ZM354.845 27.3132C355.133 27.4228 355.334 27.6866 355.363 27.9936 355.363 28.2204 355.072 28.2528 354.78 27.9936 354.488 27.7344 354.229 27.54 354.262 27.3132 354.294 27.0864 354.553 27.1512 354.845 27.3132ZM346.388 23.004C346.68 23.166 346.907 23.4252 346.842 23.652 346.777 23.8788 346.518 23.9112 346.194 23.652 345.87 23.3928 345.643 23.2308 345.708 23.004 345.773 22.7772 346.064 22.842 346.388 23.004ZM354.974 25.2072C355.331 25.4016 355.558 25.6932 355.525 25.92 355.493 26.1468 355.234 26.2116 354.877 25.92 354.589 25.787 354.381 25.5207 354.326 25.2072 354.391 25.0776 354.65 25.0452 354.974 25.2072ZM352.382 23.9112C352.635 24.0239 352.817 24.2541 352.868 24.5268 352.868 24.7536 352.577 24.786 352.253 24.5268 351.99 24.4155 351.815 24.1639 351.799 23.8788 351.832 23.7816 352.058 23.7492 352.382 23.9112ZM349.726 22.68C350.017 22.68 350.212 23.1012 350.179 23.2956 350.147 23.49 349.888 23.5224 349.596 23.2956 349.304 23.0688 349.078 22.8744 349.11 22.6476 349.142 22.4208 349.434 22.3884 349.726 22.68ZM346.842 21.1896C347.198 21.1896 347.425 21.6432 347.36 21.87 347.296 22.0968 347.004 22.1292 346.648 21.87 346.291 21.6108 346.097 21.4164 346.129 21.1896 346.162 20.9628 346.68 20.8656 346.842 21.06Z" fill="#FFFFFF" fill-rule="nonzero" fill-opacity="1" transform="matrix(1.05451 0 0 1 503.423 87)"/></g></g></g></g></g></svg>